SplineFontDB: 3.2
FontName: NotoSerifHmongNyiakeng-Regular
FullName: Noto Serif Hmong Nyiakeng Regular
FamilyName: Noto Serif Hmong Nyiakeng
Weight: Book
Copyright: Copyright 2020 Google Inc. All Rights Reserved.
Version: 1.000
ItalicAngle: 0
UnderlinePosition: -125
UnderlineWidth: 50
Ascent: 800
Descent: 200
InvalidEm: 0
sfntRevision: 0x00010000
LayerCount: 2
Layer: 0 1 "+BBcEMAQ0BD0EOAQ5 +BD8EOwQwBD0A" 1
Layer: 1 1 "+BB8ENQRABDUENAQ9BDgEOQAA +BD8EOwQwBD0A" 0
XUID: [1021 59 1751208496 19054]
StyleMap: 0x0040
FSType: 0
OS2Version: 4
OS2_WeightWidthSlopeOnly: 1
OS2_UseTypoMetrics: 0
CreationTime: 1573044454
ModificationTime: 1632245600
PfmFamily: 17
TTFWeight: 400
TTFWidth: 5
LineGap: 0
VLineGap: 0
Panose: 2 2 5 2 6 5 5 2 2 4
OS2TypoAscent: 1068
OS2TypoAOffset: 0
OS2TypoDescent: -292
OS2TypoDOffset: 0
OS2TypoLinegap: 0
OS2WinAscent: 1068
OS2WinAOffset: 0
OS2WinDescent: 292
OS2WinDOffset: 0
HheadAscent: 1068
HheadAOffset: 0
HheadDescent: -292
HheadDOffset: 0
OS2SubXSize: 650
OS2SubYSize: 600
OS2SubXOff: 0
OS2SubYOff: 75
OS2SupXSize: 650
OS2SupYSize: 600
OS2SupXOff: 0
OS2SupYOff: 350
OS2StrikeYSize: 50
OS2StrikeYPos: 322
OS2CapHeight: 714
OS2XHeight: 536
OS2Vendor: 'GOOG'
OS2CodePages: 00000001.00000000
OS2UnicodeRanges: 00000001.02000000.00000000.00000000
Lookup: 258 8 0 "'kern' Horizontal Kerning in 'DFLT' lookup 0" { "'kern' Horizontal Kerning in 'DFLT' lookup 0 per glyph data 0"  "'kern' Horizontal Kerning in 'DFLT' lookup 0 kerning class 1"  } ['kern' ('DFLT' <'dflt' > 'hmnp' <'dflt' > ) ]
Lookup: 260 0 0 "'mark' Mark Positioning in 'DFLT' lookup 1" { "'mark' Mark Positioning in 'DFLT' lookup 1 subtable"  } ['mark' ('DFLT' <'dflt' > 'hmnp' <'dflt' > ) ]
DEI: 91125
KernClass2: 29+ 33 "'kern' Horizontal Kerning in 'DFLT' lookup 0 kerning class 1"
 69 u1E101 u1E102 u1E103 u1E106 u1E10C u1E10E u1E116 u1E11A u1E11F u1E140
 55 u1E104 u1E105 u1E108 u1E11B u1E11C u1E124 u1E13C u1E146
 27 u1E112 u1E128 u1E141 u1E14E
 13 u1E110 u1E120
 13 u1E115 u1E121
 13 u1E11E u1E12B

StartChar: .notdef
Encoding: 75 -1 0
Width: 600
Flags: W
LayerCount: 2
Fore
SplineSet
94 0 m 1,0,-1
 94 714 l 1,1,-1
 505 714 l 1,2,-1
 505 0 l 1,3,-1
 94 0 l 1,0,-1
145 51 m 1,4,-1
 454 51 l 1,5,-1
 454 663 l 1,6,-1
 145 663 l 1,7,-1
 145 51 l 1,4,-1
EndSplineSet
EndChar

StartChar: u1E100
Encoding: 4 123136 4
Width: 652
GlyphClass: 2
Flags: W
AnchorPoint: "+BBEENQQ3BEsEPARPBD0EPQQ+BDUA--0" 337 680 basechar 0
LayerCount: 2
Fore
SplineSet
82 0 m 1,0,-1
 82 482 l 2,1,2
 82 555 82 555 99 598.5 c 128,-1,3
 116 642 116 642 155 661 c 128,-1,4
 194 680 194 680 260 680 c 2,5,-1
 571 680 l 1,6,-1
 571 587 l 1,7,8
 532 582 532 582 512.5 567 c 128,-1,9
 493 552 493 552 493 517 c 0,10,11
 493 487 493 487 505 452.5 c 128,-1,12
 517 418 517 418 534 377 c 0,13,14
 555 328 555 328 573.5 271 c 128,-1,15
 592 214 592 214 592 152 c 0,16,17
 592 -10 592 -10 435 -10 c 0,18,19
 356 -10 356 -10 318.5 30.5 c 128,-1,20
 281 71 281 71 281 144 c 0,21,22
 281 209 281 209 307 242 c 128,-1,23
 333 275 333 275 367 275 c 0,24,25
 396 275 396 275 409.5 253 c 128,-1,26
 423 231 423 231 423 192 c 1,27,28
 379 192 379 192 357.5 182.5 c 128,-1,29
 336 173 336 173 336 144 c 0,30,31
 336 118 336 118 357 104.5 c 128,-1,32
 378 91 378 91 436 91 c 0,33,34
 488 91 488 91 510 105 c 128,-1,35
 532 119 532 119 532 162 c 256,36,37
 532 205 532 205 516 252.5 c 128,-1,38
 500 300 500 300 480 346 c 0,39,40
 461 390 461 390 447 430 c 128,-1,41
 433 470 433 470 433 504 c 0,42,43
 433 536 433 536 445 554.5 c 128,-1,44
 457 573 457 573 473 581 c 1,45,-1
 473 585 l 1,46,47
 457 584 457 584 432 583 c 128,-1,48
 407 582 407 582 362 582 c 2,49,-1
 254 582 l 2,50,51
 192 582 192 582 167 560.5 c 128,-1,52
 142 539 142 539 142 486 c 2,53,-1
 142 0 l 1,54,-1
 82 0 l 1,0,-1
EndSplineSet
EndChar

StartChar: u1E101
Encoding: 5 123137 5
Width: 694
GlyphClass: 2
Flags: W
AnchorPoint: "+BBEENQQ3BEsEPARPBD0EPQQ+BDUA--0" 340 680 basechar 0
LayerCount: 2
Fore
SplineSet
344 -10 m 0,0,1
 196 -10 196 -10 133.5 31.5 c 128,-1,2
 71 73 71 73 71 167 c 0,3,4
 71 215 71 215 85 242 c 128,-1,5
 99 269 99 269 122 269 c 0,6,7
 130 269 130 269 139 265 c 1,8,9
 134 251 134 251 131.5 238 c 128,-1,10
 129 225 129 225 129 207 c 0,11,12
 129 164 129 164 145 139.5 c 128,-1,13
 161 115 161 115 201 104 c 128,-1,14
 241 93 241 93 313 91 c 1,15,-1
 313 497 l 2,16,17
 313 550 313 550 292.5 569.5 c 128,-1,18
 272 589 272 589 212 589 c 0,19,20
 163 589 163 589 141.5 577 c 128,-1,21
 120 565 120 565 120 537 c 0,22,23
 120 510 120 510 141 499 c 128,-1,24
 162 488 162 488 214 488 c 1,25,26
 214 405 214 405 154 405 c 0,27,28
 113 405 113 405 89 441 c 128,-1,29
 65 477 65 477 65 538 c 0,30,31
 65 613 65 613 102.5 651.5 c 128,-1,32
 140 690 140 690 211 690 c 0,33,34
 314 690 314 690 341 604 c 1,35,-1
 345 604 l 1,36,37
 358 648 358 648 387 669 c 128,-1,38
 416 690 416 690 468 690 c 0,39,40
 544 690 544 690 579 645.5 c 128,-1,41
 614 601 614 601 614 506 c 2,42,-1
 614 217 l 2,43,44
 614 126 614 126 588.5 77 c 128,-1,45
 563 28 563 28 504 9 c 128,-1,46
 445 -10 445 -10 344 -10 c 0,0,1
373 496 m 2,47,-1
 373 91 l 1,48,49
 444 93 444 93 483.5 104 c 128,-1,50
 523 115 523 115 538.5 140 c 128,-1,51
 554 165 554 165 554 210 c 2,52,-1
 554 494 l 2,53,54
 554 547 554 547 534 568 c 128,-1,55
 514 589 514 589 461 589 c 0,56,57
 411 589 411 589 392 569 c 128,-1,58
 373 549 373 549 373 496 c 2,47,-1
EndSplineSet
EndChar

StartChar: u1E102
Encoding: 6 123138 6
Width: 700
GlyphClass: 2
Flags: W
AnchorPoint: "+BBEENQQ3BEsEPARPBD0EPQQ+BDUA--0" 357 680 basechar 0
LayerCount: 2
Fore
SplineSet
84 0 m 1,0,-1
 84 680 l 1,1,-1
 138 680 l 2,2,3
 166 680 166 680 183 673.5 c 128,-1,4
 200 667 200 667 212.5 648.5 c 128,-1,5
 225 630 225 630 237 592 c 2,6,-1
 374 180 l 2,7,8
 386 144 386 144 398.5 125 c 128,-1,9
 411 106 411 106 430 98.5 c 128,-1,10
 449 91 449 91 481 91 c 0,11,12
 526 91 526 91 543 109 c 128,-1,13
 560 127 560 127 560 173 c 2,14,-1
 560 516 l 2,15,16
 560 557 560 557 542.5 573 c 128,-1,17
 525 589 525 589 480 589 c 0,18,19
 399 589 399 589 399 537 c 0,20,21
 399 511 399 511 418.5 499.5 c 128,-1,22
 438 488 438 488 484 488 c 1,23,24
 484 405 484 405 428 405 c 0,25,26
 390 405 390 405 367 442.5 c 128,-1,27
 344 480 344 480 344 539 c 0,28,29
 344 612 344 612 380 651 c 128,-1,30
 416 690 416 690 483 690 c 0,31,32
 620 690 620 690 620 521 c 2,33,-1
 620 176 l 2,34,35
 620 73 620 73 586.5 31.5 c 128,-1,36
 553 -10 553 -10 484 -10 c 0,37,38
 442 -10 442 -10 414 0.5 c 128,-1,39
 386 11 386 11 366 40 c 128,-1,40
 346 69 346 69 328 122 c 2,41,-1
 193 528 l 2,42,43
 185 552 185 552 177.5 562.5 c 128,-1,44
 170 573 170 573 154 573 c 2,45,-1
 144 573 l 1,46,-1
 144 0 l 1,47,-1
 84 0 l 1,0,-1
EndSplineSet
EndChar

StartChar: u1E103
Encoding: 7 123139 7
Width: 654
GlyphClass: 2
Flags: W
AnchorPoint: "+BBEENQQ3BEsEPARPBD0EPQQ+BDUA--0" 336 680 basechar 0
LayerCount: 2
Fore
SplineSet
346 -10 m 0,0,1
 262 -10 262 -10 211.5 10.5 c 128,-1,2
 161 31 161 31 138.5 77.5 c 128,-1,3
 116 124 116 124 116 203 c 2,4,-1
 116 523 l 2,5,6
 116 564 116 564 99.5 575 c 128,-1,7
 83 586 83 586 42 586 c 1,8,9
 42 641 42 641 60 665.5 c 128,-1,10
 78 690 78 690 108 690 c 0,11,12
 147 690 147 690 161.5 662 c 128,-1,13
 176 634 176 634 176 566 c 2,14,-1
 176 209 l 2,15,16
 176 163 176 163 190.5 137 c 128,-1,17
 205 111 205 111 242 101 c 128,-1,18
 279 91 279 91 346 91 c 0,19,20
 414 91 414 91 451 101.5 c 128,-1,21
 488 112 488 112 502.5 137.5 c 128,-1,22
 517 163 517 163 517 209 c 2,23,-1
 517 516 l 2,24,25
 517 557 517 557 499.5 573 c 128,-1,26
 482 589 482 589 438 589 c 0,27,28
 356 589 356 589 356 538 c 0,29,30
 356 511 356 511 375.5 499.5 c 128,-1,31
 395 488 395 488 441 488 c 1,32,33
 441 405 441 405 384 405 c 0,34,35
 347 405 347 405 324 441.5 c 128,-1,36
 301 478 301 478 301 536 c 0,37,38
 301 611 301 611 337 650.5 c 128,-1,39
 373 690 373 690 440 690 c 0,40,41
 577 690 577 690 577 521 c 2,42,-1
 577 203 l 2,43,44
 577 124 577 124 554.5 77.5 c 128,-1,45
 532 31 532 31 481.5 10.5 c 128,-1,46
 431 -10 431 -10 346 -10 c 0,0,1
EndSplineSet
EndChar

StartChar: u1E104
Encoding: 8 123140 8
Width: 694
GlyphClass: 2
Flags: W
AnchorPoint: "+BBEENQQ3BEsEPARPBD0EPQQ+BDUA--0" 339 680 basechar 0
LayerCount: 2
Fore
SplineSet
222 -10 m 0,0,1
 65 -10 65 -10 65 142 c 0,2,3
 65 207 65 207 90 241 c 128,-1,4
 115 275 115 275 156 275 c 0,5,6
 214 275 214 275 214 192 c 1,7,8
 162 192 162 192 141 181.5 c 128,-1,9
 120 171 120 171 120 144 c 0,10,11
 120 115 120 115 142 103 c 128,-1,12
 164 91 164 91 219 91 c 256,13,14
 274 91 274 91 296 109.5 c 128,-1,15
 318 128 318 128 318 181 c 2,16,-1
 318 497 l 2,17,18
 318 550 318 550 297 569.5 c 128,-1,19
 276 589 276 589 220 589 c 256,20,21
 164 589 164 589 142 577 c 128,-1,22
 120 565 120 565 120 537 c 256,23,24
 120 509 120 509 141 498.5 c 128,-1,25
 162 488 162 488 214 488 c 1,26,27
 214 405 214 405 154 405 c 0,28,29
 114 405 114 405 89.5 439.5 c 128,-1,30
 65 474 65 474 65 539 c 0,31,32
 65 615 65 615 104 652.5 c 128,-1,33
 143 690 143 690 214 690 c 0,34,35
 319 690 319 690 346 604 c 1,36,-1
 350 604 l 1,37,38
 363 647 363 647 391 668.5 c 128,-1,39
 419 690 419 690 468 690 c 0,40,41
 542 690 542 690 577 645.5 c 128,-1,42
 612 601 612 601 612 506 c 2,43,-1
 612 0 l 1,44,-1
 552 0 l 1,45,-1
 552 493 l 2,46,47
 552 549 552 549 534 569 c 128,-1,48
 516 589 516 589 465 589 c 0,49,50
 415 589 415 589 396.5 569.5 c 128,-1,51
 378 550 378 550 378 496 c 2,52,-1
 378 167 l 2,53,54
 378 -10 378 -10 222 -10 c 0,0,1
EndSplineSet
EndChar

StartChar: u1E105
Encoding: 9 123141 9
Width: 722
GlyphClass: 2
Flags: W
AnchorPoint: "+BBEENQQ3BEsEPARPBD0EPQQ+BDUA--0" 367 680 basechar 0
LayerCount: 2
Fore
SplineSet
225 -10 m 0,0,1
 147 -10 147 -10 111.5 36 c 128,-1,2
 76 82 76 82 76 153 c 0,3,4
 76 277 76 277 175 318 c 1,5,-1
 175 323 l 1,6,7
 129 350 129 350 97.5 402 c 128,-1,8
 66 454 66 454 66 529 c 0,9,10
 66 612 66 612 99.5 651 c 128,-1,11
 133 690 133 690 183 690 c 0,12,13
 224 690 224 690 245 663.5 c 128,-1,14
 266 637 266 637 266 589 c 1,15,16
 192 589 192 589 159 579.5 c 128,-1,17
 126 570 126 570 126 528 c 0,18,19
 126 480 126 480 161 446.5 c 128,-1,20
 196 413 196 413 258 391 c 1,21,-1
 258 284 l 1,22,23
 195 282 195 282 166.5 252 c 128,-1,24
 138 222 138 222 138 176 c 0,25,26
 138 135 138 135 158.5 113 c 128,-1,27
 179 91 179 91 225 91 c 0,28,29
 263 91 263 91 283.5 105.5 c 128,-1,30
 304 120 304 120 313 160 c 2,31,-1
 398 544 l 2,32,33
 411 603 411 603 427.5 634.5 c 128,-1,34
 444 666 444 666 469 678 c 128,-1,35
 494 690 494 690 531 690 c 0,36,37
 590 690 590 690 615 651 c 128,-1,38
 640 612 640 612 640 515 c 2,39,-1
 640 0 l 1,40,-1
 580 0 l 1,41,-1
 580 520 l 2,42,43
 580 558 580 558 567.5 573.5 c 128,-1,44
 555 589 555 589 523 589 c 256,45,46
 491 589 491 589 478 574.5 c 128,-1,47
 465 560 465 560 457 523 c 2,48,-1
 371 135 l 2,49,50
 358 77 358 77 339 45.5 c 128,-1,51
 320 14 320 14 292 2 c 128,-1,52
 264 -10 264 -10 225 -10 c 0,0,1
EndSplineSet
EndChar

StartChar: u1E106
Encoding: 10 123142 10
Width: 685
GlyphClass: 2
Flags: W
AnchorPoint: "+BBEENQQ3BEsEPARPBD0EPQQ+BDUA--0" 325 680 basechar 0
LayerCount: 2
Fore
SplineSet
84 0 m 1,0,-1
 84 680 l 1,1,-1
 144 680 l 1,2,-1
 144 421 l 2,3,4
 144 395 144 395 144 357.5 c 128,-1,5
 144 320 144 320 142 282 c 1,6,-1
 147 282 l 1,7,8
 169 350 169 350 252 350 c 0,9,10
 308 350 308 350 341.5 316.5 c 128,-1,11
 375 283 375 283 375 208 c 2,12,-1
 375 175 l 2,13,14
 375 128 375 128 391.5 109.5 c 128,-1,15
 408 91 408 91 460 91 c 0,16,17
 513 91 513 91 529.5 109.5 c 128,-1,18
 546 128 546 128 546 175 c 2,19,-1
 546 516 l 2,20,21
 546 557 546 557 528.5 573 c 128,-1,22
 511 589 511 589 467 589 c 0,23,24
 385 589 385 589 385 538 c 0,25,26
 385 511 385 511 404.5 499.5 c 128,-1,27
 424 488 424 488 470 488 c 1,28,29
 470 405 470 405 413 405 c 0,30,31
 376 405 376 405 353 441.5 c 128,-1,32
 330 478 330 478 330 536 c 0,33,34
 330 611 330 611 366 650.5 c 128,-1,35
 402 690 402 690 469 690 c 0,36,37
 606 690 606 690 606 521 c 2,38,-1
 606 164 l 2,39,40
 606 76 606 76 575.5 33 c 128,-1,41
 545 -10 545 -10 461 -10 c 0,42,43
 381 -10 381 -10 349 28.5 c 128,-1,44
 317 67 317 67 317 148 c 2,45,-1
 317 178 l 2,46,47
 317 216 317 216 298.5 232.5 c 128,-1,48
 280 249 280 249 230 249 c 0,49,50
 182 249 182 249 163 234 c 128,-1,51
 144 219 144 219 144 183 c 2,52,-1
 144 0 l 1,53,-1
 84 0 l 1,0,-1
EndSplineSet
EndChar

StartChar: u1E107
Encoding: 11 123143 11
Width: 721
GlyphClass: 2
Flags: W
AnchorPoint: "+BBEENQQ3BEsEPARPBD0EPQQ+BDUA--0" 515 680 basechar 0
LayerCount: 2
Fore
SplineSet
176 -10 m 0,0,1
 111 -10 111 -10 83 27.5 c 128,-1,2
 55 65 55 65 55 153 c 0,3,4
 55 216 55 216 69.5 256 c 128,-1,5
 84 296 84 296 117 319 c 128,-1,6
 150 342 150 342 205 354 c 2,7,-1
 237 361 l 1,8,-1
 237 667 l 2,9,10
 237 705 237 705 222 717.5 c 128,-1,11
 207 730 207 730 162 730 c 1,12,13
 162 834 162 834 224 834 c 0,14,15
 262 834 262 834 278.5 805 c 128,-1,16
 295 776 295 776 295 708 c 2,17,-1
 295 373 l 1,18,-1
 401 396 l 1,19,-1
 401 521 l 2,20,21
 401 610 401 610 429.5 650 c 128,-1,22
 458 690 458 690 522 690 c 0,23,24
 585 690 585 690 612 652 c 128,-1,25
 639 614 639 614 639 525 c 0,26,27
 639 432 639 432 605.5 387 c 128,-1,28
 572 342 572 342 489 324 c 2,29,-1
 459 318 l 1,30,-1
 459 163 l 2,31,32
 459 123 459 123 474.5 107 c 128,-1,33
 490 91 490 91 529 91 c 0,34,35
 566 91 566 91 580.5 106 c 128,-1,36
 595 121 595 121 595 160 c 0,37,38
 595 200 595 200 585 226 c 1,39,40
 594 230 594 230 603 230 c 0,41,42
 625 230 625 230 638 202 c 128,-1,43
 651 174 651 174 651 128 c 0,44,45
 651 -10 651 -10 528 -10 c 0,46,47
 459 -10 459 -10 430 29 c 128,-1,48
 401 68 401 68 401 159 c 2,49,-1
 401 305 l 1,50,-1
 295 282 l 1,51,-1
 295 159 l 2,52,53
 295 71 295 71 266.5 30.5 c 128,-1,54
 238 -10 238 -10 176 -10 c 0,0,1
459 516 m 2,55,-1
 459 409 l 1,56,-1
 474 412 l 2,57,58
 538 426 538 426 561 448.5 c 128,-1,59
 584 471 584 471 584 519 c 0,60,61
 584 558 584 558 570.5 573.5 c 128,-1,62
 557 589 557 589 523 589 c 0,63,64
 487 589 487 589 473 573 c 128,-1,65
 459 557 459 557 459 516 c 2,55,-1
110 161 m 0,66,67
 110 123 110 123 124 107 c 128,-1,68
 138 91 138 91 172 91 c 0,69,70
 208 91 208 91 222.5 107.5 c 128,-1,71
 237 124 237 124 237 164 c 2,72,-1
 237 270 l 1,73,-1
 220 266 l 2,74,75
 156 253 156 253 133 230.5 c 128,-1,76
 110 208 110 208 110 161 c 0,66,67
EndSplineSet
EndChar

StartChar: u1E108
Encoding: 12 123144 12
Width: 669
GlyphClass: 2
Flags: W
AnchorPoint: "+BBEENQQ3BEsEPARPBD0EPQQ+BDUA--0" 339 680 basechar 0
LayerCount: 2
Fore
SplineSet
223 -10 m 0,0,1
 146 -10 146 -10 106.5 31 c 128,-1,2
 67 72 67 72 67 144 c 0,3,4
 67 208 67 208 91.5 244.5 c 128,-1,5
 116 281 116 281 156 281 c 0,6,7
 216 281 216 281 216 192 c 1,8,9
 164 192 164 192 143 182 c 128,-1,10
 122 172 122 172 122 143 c 0,11,12
 122 115 122 115 144 103 c 128,-1,13
 166 91 166 91 225 91 c 0,14,15
 271 91 271 91 297.5 101 c 128,-1,16
 324 111 324 111 335 140.5 c 128,-1,17
 346 170 346 170 346 228 c 0,18,19
 346 287 346 287 334 316.5 c 128,-1,20
 322 346 322 346 297.5 356 c 128,-1,21
 273 366 273 366 237 366 c 2,22,-1
 87 366 l 1,23,-1
 87 680 l 1,24,-1
 147 680 l 1,25,-1
 147 464 l 1,26,-1
 243 464 l 2,27,28
 269 464 269 464 291 458 c 1,29,-1
 291 506 l 2,30,31
 291 602 291 602 326 646 c 128,-1,32
 361 690 361 690 439 690 c 256,33,34
 517 690 517 690 552 646 c 128,-1,35
 587 602 587 602 587 506 c 2,36,-1
 587 0 l 1,37,-1
 527 0 l 1,38,-1
 527 493 l 2,39,40
 527 549 527 549 509 569 c 128,-1,41
 491 589 491 589 439 589 c 256,42,43
 387 589 387 589 369 569 c 128,-1,44
 351 549 351 549 351 493 c 2,45,-1
 351 422 l 1,46,47
 377 394 377 394 391.5 346.5 c 128,-1,48
 406 299 406 299 406 229 c 0,49,50
 406 140 406 140 386.5 87.5 c 128,-1,51
 367 35 367 35 326.5 12.5 c 128,-1,52
 286 -10 286 -10 223 -10 c 0,0,1
EndSplineSet
EndChar

StartChar: u1E109
Encoding: 13 123145 13
Width: 586
GlyphClass: 2
Flags: W
AnchorPoint: "+BBEENQQ3BEsEPARPBD0EPQQ+BDUA--0" 295 680 basechar 0
LayerCount: 2
Fore
SplineSet
291 -10 m 256,0,1
 205 -10 205 -10 154 6.5 c 128,-1,2
 103 23 103 23 80.5 61.5 c 128,-1,3
 58 100 58 100 58 165 c 0,4,5
 58 255 58 255 103 309 c 0,6,7
 117 326 117 326 139 343 c 128,-1,8
 161 360 161 360 200.5 382 c 128,-1,9
 240 404 240 404 306 435 c 0,10,11
 370 465 370 465 400 483.5 c 128,-1,12
 430 502 430 502 439 518.5 c 128,-1,13
 448 535 448 535 448 560 c 2,14,-1
 448 582 l 1,15,-1
 76 582 l 1,16,-1
 76 620 l 1,17,-1
 98 680 l 1,18,-1
 508 680 l 1,19,-1
 508 569 l 2,20,21
 508 524 508 524 502 493.5 c 128,-1,22
 496 463 496 463 480 442 c 0,23,24
 459 415 459 415 412.5 387.5 c 128,-1,25
 366 360 366 360 289 323 c 0,26,27
 216 288 216 288 178.5 263.5 c 128,-1,28
 141 239 141 239 128.5 216.5 c 128,-1,29
 116 194 116 194 116 165 c 256,30,31
 116 136 116 136 130 119.5 c 128,-1,32
 144 103 144 103 182.5 97 c 128,-1,33
 221 91 221 91 293 91 c 0,34,35
 364 91 364 91 401.5 96.5 c 128,-1,36
 439 102 439 102 453.5 114 c 128,-1,37
 468 126 468 126 468 148 c 0,38,39
 468 173 468 173 447.5 183 c 128,-1,40
 427 193 427 193 377 193 c 1,41,42
 377 276 377 276 440 276 c 0,43,44
 478 276 478 276 500.5 244 c 128,-1,45
 523 212 523 212 523 150 c 0,46,47
 523 92 523 92 501 57 c 128,-1,48
 479 22 479 22 428 6 c 128,-1,49
 377 -10 377 -10 291 -10 c 256,0,1
EndSplineSet
EndChar

StartChar: u1E10A
Encoding: 14 123146 14
Width: 712
GlyphClass: 2
Flags: W
AnchorPoint: "+BBEENQQ3BEsEPARPBD0EPQQ+BDUA--0" 373 680 basechar 0
LayerCount: 2
Fore
SplineSet
373 -10 m 0,0,1
 274 -10 274 -10 218 11 c 128,-1,2
 162 32 162 32 139 78.5 c 128,-1,3
 116 125 116 125 116 203 c 2,4,-1
 116 523 l 2,5,6
 116 564 116 564 99.5 575 c 128,-1,7
 83 586 83 586 42 586 c 1,8,9
 42 641 42 641 60 665.5 c 128,-1,10
 78 690 78 690 108 690 c 0,11,12
 147 690 147 690 161.5 662 c 128,-1,13
 176 634 176 634 176 566 c 2,14,-1
 176 209 l 2,15,16
 176 165 176 165 189 140 c 128,-1,17
 202 115 202 115 238 104 c 128,-1,18
 274 93 274 93 343 91 c 1,19,-1
 343 680 l 1,20,-1
 403 680 l 1,21,-1
 403 91 l 1,22,23
 472 93 472 93 508 104 c 128,-1,24
 544 115 544 115 557 140 c 128,-1,25
 570 165 570 165 570 209 c 2,26,-1
 570 680 l 1,27,-1
 630 680 l 1,28,-1
 630 203 l 2,29,30
 630 125 630 125 608 78.5 c 128,-1,31
 586 32 586 32 530 11 c 128,-1,32
 474 -10 474 -10 373 -10 c 0,0,1
EndSplineSet
EndChar

StartChar: u1E10B
Encoding: 15 123147 15
Width: 634
GlyphClass: 2
Flags: W
AnchorPoint: "+BBEENQQ3BEsEPARPBD0EPQQ+BDUA--0" 311 680 basechar 0
LayerCount: 2
Fore
SplineSet
314 -10 m 0,0,1
 223 -10 223 -10 168.5 6.5 c 128,-1,2
 114 23 114 23 89.5 60.5 c 128,-1,3
 65 98 65 98 65 159 c 256,4,5
 65 220 65 220 101 257 c 128,-1,6
 137 294 137 294 195 294 c 0,7,8
 277 294 277 294 277 211 c 1,9,10
 228 211 228 211 198.5 208 c 128,-1,11
 169 205 169 205 152 199 c 0,12,13
 120 187 120 187 120 152 c 0,14,15
 120 129 120 129 137.5 115.5 c 128,-1,16
 155 102 155 102 197 96.5 c 128,-1,17
 239 91 239 91 314 91 c 0,18,19
 386 91 386 91 424.5 100.5 c 128,-1,20
 463 110 463 110 477.5 135.5 c 128,-1,21
 492 161 492 161 492 207 c 2,22,-1
 492 368 l 2,23,24
 492 393 492 393 492.5 418 c 128,-1,25
 493 443 493 443 494 472 c 1,26,-1
 489 472 l 1,27,28
 481 442 481 442 460.5 431 c 128,-1,29
 440 420 440 420 416 420 c 0,30,31
 381 420 381 420 352 443 c 128,-1,32
 323 466 323 466 286 514 c 0,33,34
 260 548 260 548 237.5 568.5 c 128,-1,35
 215 589 215 589 189 589 c 0,36,37
 161 589 161 589 147.5 560.5 c 128,-1,38
 134 532 134 532 134 492 c 0,39,40
 134 468 134 468 136.5 453 c 128,-1,41
 139 438 139 438 143 423 c 1,42,43
 134 419 134 419 127 419 c 0,44,45
 103 419 103 419 89.5 449 c 128,-1,46
 76 479 76 479 76 531 c 0,47,48
 76 615 76 615 110.5 652.5 c 128,-1,49
 145 690 145 690 192 690 c 0,50,51
 237 690 237 690 270 660 c 128,-1,52
 303 630 303 630 334 591 c 0,53,54
 364 554 364 554 390 531.5 c 128,-1,55
 416 509 416 509 444 509 c 0,56,57
 492 509 492 509 492 572 c 2,58,-1
 492 680 l 1,59,-1
 552 680 l 1,60,-1
 552 208 l 2,61,62
 552 126 552 126 530 78.5 c 128,-1,63
 508 31 508 31 456 10.5 c 128,-1,64
 404 -10 404 -10 314 -10 c 0,0,1
EndSplineSet
EndChar

StartChar: u1E10C
Encoding: 16 123148 16
Width: 670
GlyphClass: 2
Flags: W
AnchorPoint: "+BBEENQQ3BEsEPARPBD0EPQQ+BDUA--0" 330 680 basechar 0
LayerCount: 2
Fore
SplineSet
84 0 m 1,0,-1
 84 680 l 1,1,-1
 162 680 l 1,2,-1
 306 485 l 1,3,-1
 309 485 l 1,4,-1
 359 583 l 2,5,6
 381 627 381 627 399 650 c 128,-1,7
 417 673 417 673 437 681.5 c 128,-1,8
 457 690 457 690 483 690 c 0,9,10
 543 690 543 690 567 651 c 128,-1,11
 591 612 591 612 591 514 c 2,12,-1
 591 162 l 2,13,14
 591 -10 591 -10 452 -10 c 0,15,16
 383 -10 383 -10 347 29.5 c 128,-1,17
 311 69 311 69 311 143 c 0,18,19
 311 202 311 202 333.5 238.5 c 128,-1,20
 356 275 356 275 392 275 c 0,21,22
 447 275 447 275 447 192 c 1,23,24
 403 192 403 192 384.5 181 c 128,-1,25
 366 170 366 170 366 144 c 0,26,27
 366 116 366 116 385.5 103.5 c 128,-1,28
 405 91 405 91 451 91 c 0,29,30
 498 91 498 91 514.5 106.5 c 128,-1,31
 531 122 531 122 531 164 c 2,32,-1
 531 516 l 2,33,34
 531 556 531 556 516.5 572.5 c 128,-1,35
 502 589 502 589 468 589 c 0,36,37
 440 589 440 589 425.5 574.5 c 128,-1,38
 411 560 411 560 388 517 c 2,39,-1
 322 389 l 1,40,-1
 272 389 l 1,41,-1
 149 554 l 1,42,-1
 144 554 l 1,43,-1
 144 0 l 1,44,-1
 84 0 l 1,0,-1
EndSplineSet
EndChar

StartChar: u1E10D
Encoding: 17 123149 17
Width: 597
GlyphClass: 2
Flags: W
AnchorPoint: "+BBEENQQ3BEsEPARPBD0EPQQ+BDUA--0" 308 680 basechar 0
LayerCount: 2
Fore
SplineSet
82 0 m 1,0,-1
 82 477 l 2,1,2
 82 562 82 562 104.5 608 c 128,-1,3
 127 654 127 654 178 672 c 128,-1,4
 229 690 229 690 314 690 c 0,5,6
 435 690 435 690 484 646 c 128,-1,7
 533 602 533 602 533 511 c 0,8,9
 533 467 533 467 520 440.5 c 128,-1,10
 507 414 507 414 485 414 c 0,11,12
 476 414 476 414 467 418 c 1,13,14
 475 443 475 443 475 474 c 0,15,16
 475 515 475 515 462 540 c 128,-1,17
 449 565 449 565 414 577 c 128,-1,18
 379 589 379 589 312 589 c 256,19,20
 245 589 245 589 208 579.5 c 128,-1,21
 171 570 171 570 156.5 546.5 c 128,-1,22
 142 523 142 523 142 479 c 2,23,-1
 142 271 l 2,24,25
 142 240 142 240 142 220 c 128,-1,26
 142 200 142 200 141.5 182 c 128,-1,27
 141 164 141 164 140 139 c 1,28,-1
 146 139 l 1,29,30
 156 168 156 168 173.5 188 c 128,-1,31
 191 208 191 208 226.5 218 c 128,-1,32
 262 228 262 228 324 228 c 0,33,34
 391 228 391 228 438 212 c 128,-1,35
 485 196 485 196 510.5 156.5 c 128,-1,36
 536 117 536 117 536 46 c 2,37,-1
 536 0 l 1,38,-1
 476 0 l 1,39,-1
 476 39 l 2,40,41
 476 72 476 72 462 91 c 128,-1,42
 448 110 448 110 412 118.5 c 128,-1,43
 376 127 376 127 309 127 c 0,44,45
 243 127 243 127 207 117.5 c 128,-1,46
 171 108 171 108 156.5 89 c 128,-1,47
 142 70 142 70 142 39 c 2,48,-1
 142 0 l 1,49,-1
 82 0 l 1,0,-1
EndSplineSet
EndChar

StartChar: u1E10E
Encoding: 18 123150 18
Width: 598
GlyphClass: 2
Flags: W
AnchorPoint: "+BBEENQQ3BEsEPARPBD0EPQQ+BDUA--0" 299 680 basechar 0
LayerCount: 2
Fore
SplineSet
302 -10 m 0,0,1
 178 -10 178 -10 125 31 c 128,-1,2
 72 72 72 72 72 168 c 0,3,4
 72 215 72 215 85.5 242 c 128,-1,5
 99 269 99 269 122 269 c 0,6,7
 131 269 131 269 140 265 c 1,8,9
 130 238 130 238 130 209 c 0,10,11
 130 164 130 164 145.5 138 c 128,-1,12
 161 112 161 112 198 101.5 c 128,-1,13
 235 91 235 91 300 91 c 0,14,15
 363 91 363 91 398 101 c 128,-1,16
 433 111 433 111 447 136.5 c 128,-1,17
 461 162 461 162 461 208 c 2,18,-1
 461 483 l 2,19,20
 461 524 461 524 447 547 c 128,-1,21
 433 570 433 570 398.5 579.5 c 128,-1,22
 364 589 364 589 302 589 c 0,23,24
 215 589 215 589 180 564 c 128,-1,25
 145 539 145 539 145 474 c 2,26,-1
 145 422 l 1,27,-1
 85 422 l 1,28,-1
 85 680 l 1,29,-1
 145 680 l 1,30,-1
 145 668 l 2,31,32
 145 654 145 654 145 634.5 c 128,-1,33
 145 615 145 615 143 591 c 1,34,-1
 147 591 l 1,35,36
 162 645 162 645 201.5 667.5 c 128,-1,37
 241 690 241 690 318 690 c 0,38,39
 393 690 393 690 437.5 669 c 128,-1,40
 482 648 482 648 501.5 601 c 128,-1,41
 521 554 521 554 521 475 c 2,42,-1
 521 203 l 2,43,44
 521 124 521 124 501 77.5 c 128,-1,45
 481 31 481 31 433 10.5 c 128,-1,46
 385 -10 385 -10 302 -10 c 0,0,1
EndSplineSet
EndChar

StartChar: u1E10F
Encoding: 19 123151 19
Width: 629
GlyphClass: 2
Flags: W
AnchorPoint: "+BBEENQQ3BEsEPARPBD0EPQQ+BDUA--0" 296 680 basechar 0
LayerCount: 2
Fore
SplineSet
296 -10 m 0,0,1
 217 -10 217 -10 168.5 10 c 128,-1,2
 120 30 120 30 98.5 77.5 c 128,-1,3
 77 125 77 125 77 205 c 2,4,-1
 77 487 l 2,5,6
 77 565 77 565 96.5 609 c 128,-1,7
 116 653 116 653 165 671.5 c 128,-1,8
 214 690 214 690 300 690 c 0,9,10
 419 690 419 690 471.5 648 c 128,-1,11
 524 606 524 606 524 511 c 0,12,13
 524 467 524 467 511 440.5 c 128,-1,14
 498 414 498 414 475 414 c 0,15,16
 466 414 466 414 457 418 c 1,17,18
 465 443 465 443 465 474 c 0,19,20
 465 518 465 518 450 543 c 128,-1,21
 435 568 435 568 399 578.5 c 128,-1,22
 363 589 363 589 299 589 c 0,23,24
 236 589 236 589 201 580 c 128,-1,25
 166 571 166 571 151.5 549 c 128,-1,26
 137 527 137 527 137 488 c 2,27,-1
 137 205 l 2,28,29
 137 143 137 143 172 117 c 128,-1,30
 207 91 207 91 294 91 c 0,31,32
 357 91 357 91 390.5 100.5 c 128,-1,33
 424 110 424 110 436.5 134.5 c 128,-1,34
 449 159 449 159 449 205 c 2,35,-1
 449 263 l 1,36,-1
 509 263 l 1,37,-1
 509 205 l 2,38,39
 509 162 509 162 516 136.5 c 128,-1,40
 523 111 523 111 540 98.5 c 128,-1,41
 557 86 557 86 588 80 c 1,42,43
 585 38 585 38 569.5 14 c 128,-1,44
 554 -10 554 -10 531 -10 c 0,45,46
 474 -10 474 -10 460 92 c 1,47,-1
 456 92 l 1,48,49
 446 38 446 38 409 14 c 128,-1,50
 372 -10 372 -10 296 -10 c 0,0,1
EndSplineSet
EndChar

StartChar: u1E110
Encoding: 20 123152 20
Width: 615
GlyphClass: 2
Flags: W
AnchorPoint: "+BBEENQQ3BEsEPARPBD0EPQQ+BDUA--0" 312 680 basechar 0
LayerCount: 2
Fore
SplineSet
82 0 m 1,0,-1
 82 477 l 2,1,2
 82 562 82 562 105 608 c 128,-1,3
 128 654 128 654 179.5 672 c 128,-1,4
 231 690 231 690 316 690 c 0,5,6
 438 690 438 690 487.5 646 c 128,-1,7
 537 602 537 602 537 511 c 0,8,9
 537 467 537 467 524 440.5 c 128,-1,10
 511 414 511 414 489 414 c 0,11,12
 480 414 480 414 471 418 c 1,13,14
 479 443 479 443 479 474 c 0,15,16
 479 515 479 515 466 540 c 128,-1,17
 453 565 453 565 417.5 577 c 128,-1,18
 382 589 382 589 314 589 c 0,19,20
 247 589 247 589 209.5 579.5 c 128,-1,21
 172 570 172 570 157 546.5 c 128,-1,22
 142 523 142 523 142 479 c 2,23,-1
 142 274 l 2,24,25
 142 238 142 238 142 218.5 c 128,-1,26
 142 199 142 199 142 189.5 c 128,-1,27
 142 180 142 180 141 173 c 1,28,-1
 146 173 l 1,29,30
 162 223 162 223 212 223 c 0,31,32
 231 223 231 223 246 217.5 c 128,-1,33
 261 212 261 212 279.5 197.5 c 128,-1,34
 298 183 298 183 327 157 c 0,35,36
 355 132 355 132 373.5 117.5 c 128,-1,37
 392 103 392 103 408 96.5 c 128,-1,38
 424 90 424 90 444 90 c 0,39,40
 495 90 495 90 495 140 c 0,41,42
 495 172 495 172 474 182 c 128,-1,43
 453 192 453 192 403 192 c 1,44,45
 403 275 403 275 463 275 c 0,46,47
 503 275 503 275 526.5 241 c 128,-1,48
 550 207 550 207 550 141 c 0,49,50
 550 65 550 65 521 27.5 c 128,-1,51
 492 -10 492 -10 437 -10 c 0,52,53
 400 -10 400 -10 372.5 5 c 128,-1,54
 345 20 345 20 304 56 c 0,55,56
 275 82 275 82 255.5 96.5 c 128,-1,57
 236 111 236 111 221.5 117 c 128,-1,58
 207 123 207 123 189 123 c 0,59,60
 165 123 165 123 153.5 113 c 128,-1,61
 142 103 142 103 142 73 c 2,62,-1
 142 0 l 1,63,-1
 82 0 l 1,0,-1
EndSplineSet
EndChar

StartChar: u1E111
Encoding: 21 123153 21
Width: 589
GlyphClass: 2
Flags: W
AnchorPoint: "+BBEENQQ3BEsEPARPBD0EPQQ+BDUA--0" 304 680 basechar 0
LayerCount: 2
Fore
SplineSet
304 -10 m 0,0,1
 177 -10 177 -10 121 30 c 128,-1,2
 65 70 65 70 65 160 c 0,3,4
 65 225 65 225 93 264 c 128,-1,5
 121 303 121 303 181 325 c 1,6,-1
 181 329 l 1,7,8
 125 354 125 354 98.5 397 c 128,-1,9
 72 440 72 440 72 507 c 0,10,11
 72 690 72 690 300 690 c 0,12,13
 416 690 416 690 470 651.5 c 128,-1,14
 524 613 524 613 524 530 c 0,15,16
 524 473 524 473 501 439 c 128,-1,17
 478 405 478 405 437 405 c 0,18,19
 407 405 407 405 391 426.5 c 128,-1,20
 375 448 375 448 375 488 c 1,21,22
 430 488 430 488 449.5 499 c 128,-1,23
 469 510 469 510 469 533 c 0,24,25
 469 565 469 565 434 577 c 128,-1,26
 399 589 399 589 305 589 c 0,27,28
 207 589 207 589 169.5 570.5 c 128,-1,29
 132 552 132 552 132 503 c 0,30,31
 132 403 132 403 315 396 c 1,32,-1
 315 297 l 1,33,34
 218 291 218 291 171.5 262 c 128,-1,35
 125 233 125 233 125 177 c 0,36,37
 125 145 125 145 141.5 126 c 128,-1,38
 158 107 158 107 197 99 c 128,-1,39
 236 91 236 91 304 91 c 0,40,41
 400 91 400 91 439 104 c 128,-1,42
 478 117 478 117 478 149 c 0,43,44
 478 172 478 172 457 182 c 128,-1,45
 436 192 436 192 386 192 c 1,46,47
 386 275 386 275 442 275 c 0,48,49
 485 275 485 275 509 241.5 c 128,-1,50
 533 208 533 208 533 151 c 0,51,52
 533 64 533 64 481 27 c 128,-1,53
 429 -10 429 -10 304 -10 c 0,0,1
EndSplineSet
EndChar

StartChar: u1E112
Encoding: 22 123154 22
Width: 661
GlyphClass: 2
Flags: W
AnchorPoint: "+BBEENQQ3BEsEPARPBD0EPQQ+BDUA--0" 356 680 basechar 0
LayerCount: 2
Fore
SplineSet
222 -10 m 0,0,1
 65 -10 65 -10 65 142 c 0,2,3
 65 207 65 207 90 241 c 128,-1,4
 115 275 115 275 156 275 c 0,5,6
 214 275 214 275 214 192 c 1,7,8
 162 192 162 192 141 181.5 c 128,-1,9
 120 171 120 171 120 144 c 0,10,11
 120 115 120 115 142 103 c 128,-1,12
 164 91 164 91 219 91 c 256,13,14
 274 91 274 91 296 109.5 c 128,-1,15
 318 128 318 128 318 181 c 2,16,-1
 318 497 l 2,17,18
 318 550 318 550 297 569.5 c 128,-1,19
 276 589 276 589 220 589 c 256,20,21
 164 589 164 589 142 577 c 128,-1,22
 120 565 120 565 120 536 c 0,23,24
 120 509 120 509 141 498.5 c 128,-1,25
 162 488 162 488 214 488 c 1,26,27
 214 405 214 405 154 405 c 0,28,29
 114 405 114 405 89.5 439.5 c 128,-1,30
 65 474 65 474 65 539 c 0,31,32
 65 615 65 615 105 652.5 c 128,-1,33
 145 690 145 690 220 690 c 0,34,35
 301 690 301 690 339.5 646 c 128,-1,36
 378 602 378 602 378 513 c 2,37,-1
 378 392 l 1,38,-1
 517 392 l 1,39,-1
 517 680 l 1,40,-1
 577 680 l 1,41,-1
 577 0 l 1,42,-1
 517 0 l 1,43,-1
 517 294 l 1,44,-1
 378 294 l 1,45,-1
 378 167 l 2,46,47
 378 -10 378 -10 222 -10 c 0,0,1
EndSplineSet
EndChar

StartChar: u1E113
Encoding: 23 123155 23
Width: 606
GlyphClass: 2
Flags: W
AnchorPoint: "+BBEENQQ3BEsEPARPBD0EPQQ+BDUA--0" 301 680 basechar 0
LayerCount: 2
Fore
SplineSet
303 -10 m 0,0,1
 176 -10 176 -10 119 27 c 128,-1,2
 62 64 62 64 62 144 c 0,3,4
 62 181 62 181 71 211 c 128,-1,5
 80 241 80 241 102 266 c 0,6,7
 119 286 119 286 143 303 c 128,-1,8
 167 320 167 320 208 341.5 c 128,-1,9
 249 363 249 363 318 397 c 0,10,11
 382 429 382 429 416.5 448.5 c 128,-1,12
 451 468 451 468 464.5 484.5 c 128,-1,13
 478 501 478 501 478 523 c 0,14,15
 478 550 478 550 464 564 c 128,-1,16
 450 578 450 578 411.5 583.5 c 128,-1,17
 373 589 373 589 298 589 c 0,18,19
 201 589 201 589 163.5 577 c 128,-1,20
 126 565 126 565 126 533 c 0,21,22
 126 508 126 508 147 498 c 128,-1,23
 168 488 168 488 220 488 c 1,24,25
 220 405 220 405 157 405 c 0,26,27
 117 405 117 405 94 439 c 128,-1,28
 71 473 71 473 71 530 c 0,29,30
 71 614 71 614 129 652 c 128,-1,31
 187 690 187 690 306 690 c 0,32,33
 429 690 429 690 482.5 649 c 128,-1,34
 536 608 536 608 536 522 c 0,35,36
 536 491 536 491 529 463 c 128,-1,37
 522 435 522 435 503 412 c 0,38,39
 481 384 481 384 433 355.5 c 128,-1,40
 385 327 385 327 293 281 c 0,41,42
 225 247 225 247 187.5 226 c 128,-1,43
 150 205 150 205 135 188 c 128,-1,44
 120 171 120 171 120 148 c 256,45,46
 120 125 120 125 135 112.5 c 128,-1,47
 150 100 150 100 190 95.5 c 128,-1,48
 230 91 230 91 304 91 c 0,49,50
 376 91 376 91 416.5 96 c 128,-1,51
 457 101 457 101 473 113 c 128,-1,52
 489 125 489 125 489 147 c 0,53,54
 489 172 489 172 468.5 182 c 128,-1,55
 448 192 448 192 395 192 c 1,56,57
 395 275 395 275 458 275 c 0,58,59
 498 275 498 275 521 241.5 c 128,-1,60
 544 208 544 208 544 153 c 0,61,62
 544 95 544 95 521.5 59 c 128,-1,63
 499 23 499 23 446 6.5 c 128,-1,64
 393 -10 393 -10 303 -10 c 0,0,1
EndSplineSet
EndChar

StartChar: u1E114
Encoding: 24 123156 24
Width: 675
GlyphClass: 2
Flags: W
AnchorPoint: "+BBEENQQ3BEsEPARPBD0EPQQ+BDUA--0" 351 680 basechar 0
LayerCount: 2
Fore
SplineSet
83 0 m 1,0,1
 98 77 98 77 111 156 c 128,-1,2
 124 235 124 235 134.5 306 c 128,-1,3
 145 377 145 377 151 432 c 128,-1,4
 157 487 157 487 157 517 c 0,5,6
 157 561 157 561 137 575.5 c 128,-1,7
 117 590 117 590 58 590 c 1,8,9
 58 643 58 643 79 666.5 c 128,-1,10
 100 690 100 690 134 690 c 0,11,12
 175 690 175 690 197 660.5 c 128,-1,13
 219 631 219 631 219 551 c 0,14,15
 219 514 219 514 215.5 473 c 128,-1,16
 212 432 212 432 205 379 c 128,-1,17
 198 326 198 326 185 251 c 1,18,-1
 191 251 l 1,19,20
 238 355 238 355 297 445.5 c 128,-1,21
 356 536 356 536 441 604 c 0,22,23
 489 642 489 642 527.5 660.5 c 128,-1,24
 566 679 566 679 591 689 c 1,25,-1
 614 670 l 1,26,-1
 614 589 l 1,27,28
 580 526 580 526 557 455.5 c 128,-1,29
 534 385 534 385 522.5 319 c 128,-1,30
 511 253 511 253 511 203 c 256,31,32
 511 153 511 153 521 128.5 c 128,-1,33
 531 104 531 104 554.5 96.5 c 128,-1,34
 578 89 578 89 617 89 c 1,35,36
 617 36 617 36 599.5 13 c 128,-1,37
 582 -10 582 -10 548 -10 c 0,38,39
 497 -10 497 -10 474 36 c 128,-1,40
 451 82 451 82 451 182 c 0,41,42
 451 255 451 255 468.5 349 c 128,-1,43
 486 443 486 443 531 546 c 1,44,-1
 526 551 l 1,45,46
 465 519 465 519 407.5 461 c 128,-1,47
 350 403 350 403 299.5 328 c 128,-1,48
 249 253 249 253 209 168.5 c 128,-1,49
 169 84 169 84 143 0 c 1,50,-1
 83 0 l 1,0,1
EndSplineSet
EndChar

StartChar: u1E115
Encoding: 25 123157 25
Width: 614
GlyphClass: 2
Flags: W
AnchorPoint: "+BBEENQQ3BEsEPARPBD0EPQQ+BDUA--0" 314 680 basechar 0
LayerCount: 2
Fore
SplineSet
75 0 m 1,0,-1
 75 115 l 2,1,2
 75 169 75 169 81.5 205.5 c 128,-1,3
 88 242 88 242 110 268 c 0,4,5
 134 297 134 297 182 325.5 c 128,-1,6
 230 354 230 354 321 397 c 0,7,8
 391 430 391 430 426.5 449.5 c 128,-1,9
 462 469 462 469 474.5 485.5 c 128,-1,10
 487 502 487 502 487 525 c 0,11,12
 487 551 487 551 474 564.5 c 128,-1,13
 461 578 461 578 427 583.5 c 128,-1,14
 393 589 393 589 328 589 c 0,15,16
 258 589 258 589 218 578 c 128,-1,17
 178 567 178 567 161.5 542 c 128,-1,18
 145 517 145 517 145 474 c 2,19,-1
 145 422 l 1,20,-1
 85 422 l 1,21,-1
 85 680 l 1,22,-1
 145 680 l 1,23,-1
 145 668 l 2,24,25
 145 650 145 650 144.5 629.5 c 128,-1,26
 144 609 144 609 143 591 c 1,27,-1
 147 591 l 1,28,29
 162 645 162 645 207.5 667.5 c 128,-1,30
 253 690 253 690 339 690 c 0,31,32
 447 690 447 690 496 649.5 c 128,-1,33
 545 609 545 609 545 524 c 0,34,35
 545 491 545 491 538 462 c 128,-1,36
 531 433 531 433 512 410 c 0,37,38
 497 392 497 392 471 374 c 128,-1,39
 445 356 445 356 402.5 334 c 128,-1,40
 360 312 360 312 296 281 c 0,41,42
 247 258 247 258 218 242 c 128,-1,43
 189 226 189 226 174.5 215 c 128,-1,44
 160 204 160 204 153 195 c 1,45,46
 218 136 218 136 279 113.5 c 128,-1,47
 340 91 340 91 392 91 c 0,48,49
 452 91 452 91 469.5 116.5 c 128,-1,50
 487 142 487 142 487 197 c 0,51,52
 487 230 487 230 479 257 c 1,53,54
 488 261 488 261 497 261 c 0,55,56
 520 261 520 261 532.5 232 c 128,-1,57
 545 203 545 203 545 149 c 0,58,59
 545 71 545 71 510.5 30.5 c 128,-1,60
 476 -10 476 -10 390 -10 c 0,61,62
 315 -10 315 -10 252.5 25.5 c 128,-1,63
 190 61 190 61 139 145 c 1,64,-1
 135 145 l 1,65,-1
 135 0 l 1,66,-1
 75 0 l 1,0,-1
EndSplineSet
EndChar

StartChar: u1E116
Encoding: 26 123158 26
Width: 653
GlyphClass: 2
Flags: W
AnchorPoint: "+BBEENQQ3BEsEPARPBD0EPQQ+BDUA--0" 319 680 basechar 0
LayerCount: 2
Fore
SplineSet
341 -10 m 0,0,1
 214 -10 214 -10 159 27 c 128,-1,2
 104 64 104 64 104 149 c 0,3,4
 104 208 104 208 128.5 240 c 128,-1,5
 153 272 153 272 193 288 c 1,6,-1
 193 294 l 1,7,8
 149 326 149 326 119.5 358 c 128,-1,9
 90 390 90 390 73 429 c 0,10,11
 63 455 63 455 57 484.5 c 128,-1,12
 51 514 51 514 51 550 c 0,13,14
 51 623 51 623 78 656.5 c 128,-1,15
 105 690 105 690 149 690 c 0,16,17
 187 690 187 690 204 663 c 128,-1,18
 221 636 221 636 221 601 c 1,19,20
 157 601 157 601 132.5 588 c 128,-1,21
 108 575 108 575 108 539 c 0,22,23
 108 491 108 491 149.5 448 c 128,-1,24
 191 405 191 405 268 366 c 1,25,-1
 268 251 l 1,26,27
 221 249 221 249 191.5 230 c 128,-1,28
 162 211 162 211 162 168 c 0,29,30
 162 144 162 144 175.5 126.5 c 128,-1,31
 189 109 189 109 227 100 c 128,-1,32
 265 91 265 91 338 91 c 0,33,34
 407 91 407 91 445.5 100.5 c 128,-1,35
 484 110 484 110 500 136 c 128,-1,36
 516 162 516 162 516 209 c 2,37,-1
 516 516 l 2,38,39
 516 557 516 557 498.5 573 c 128,-1,40
 481 589 481 589 437 589 c 0,41,42
 355 589 355 589 355 538 c 0,43,44
 355 511 355 511 374.5 499.5 c 128,-1,45
 394 488 394 488 440 488 c 1,46,47
 440 405 440 405 383 405 c 0,48,49
 346 405 346 405 323 441.5 c 128,-1,50
 300 478 300 478 300 536 c 0,51,52
 300 611 300 611 336 650.5 c 128,-1,53
 372 690 372 690 439 690 c 0,54,55
 576 690 576 690 576 521 c 2,56,-1
 576 203 l 2,57,58
 576 125 576 125 554 78.5 c 128,-1,59
 532 32 532 32 480.5 11 c 128,-1,60
 429 -10 429 -10 341 -10 c 0,0,1
EndSplineSet
EndChar

StartChar: u1E117
Encoding: 27 123159 27
Width: 620
GlyphClass: 2
Flags: W
AnchorPoint: "+BBEENQQ3BEsEPARPBD0EPQQ+BDUA--0" 299 680 basechar 0
LayerCount: 2
Fore
SplineSet
120 -236 m 0,0,1
 90 -236 90 -236 72 -211.5 c 128,-1,2
 54 -187 54 -187 54 -133 c 1,3,4
 98 -133 98 -133 117 -119 c 128,-1,5
 136 -105 136 -105 136 -53 c 2,6,-1
 136 582 l 1,7,-1
 33 582 l 1,8,-1
 33 620 l 1,9,-1
 55 680 l 1,10,-1
 441 680 l 2,11,12
 491 680 491 680 514 652.5 c 128,-1,13
 537 625 537 625 537 554 c 0,14,15
 537 524 537 524 531 483 c 128,-1,16
 525 442 525 442 515.5 397 c 128,-1,17
 506 352 506 352 495 308 c 0,18,19
 483 258 483 258 475 216.5 c 128,-1,20
 467 175 467 175 467 155 c 0,21,22
 467 117 467 117 488 103 c 128,-1,23
 509 89 509 89 562 89 c 1,24,25
 562 37 562 37 545 13.5 c 128,-1,26
 528 -10 528 -10 496 -10 c 0,27,28
 446 -10 446 -10 425 25 c 0,29,30
 415 41 415 41 409.5 63 c 128,-1,31
 404 85 404 85 404 122 c 0,32,33
 404 167 404 167 417 230.5 c 128,-1,34
 430 294 430 294 445 358 c 0,35,36
 457 408 457 408 465.5 450.5 c 128,-1,37
 474 493 474 493 474 517 c 0,38,39
 474 555 474 555 459 568.5 c 128,-1,40
 444 582 444 582 393 582 c 2,41,-1
 196 582 l 1,42,-1
 196 -115 l 2,43,44
 196 -171 196 -171 177.5 -203.5 c 128,-1,45
 159 -236 159 -236 120 -236 c 0,0,1
EndSplineSet
EndChar

StartChar: u1E118
Encoding: 28 123160 28
Width: 660
GlyphClass: 2
Flags: W
AnchorPoint: "+BBEENQQ3BEsEPARPBD0EPQQ+BDUA--0" 341 680 basechar 0
LayerCount: 2
Fore
SplineSet
346 -10 m 0,0,1
 247 -10 247 -10 189.5 10.5 c 128,-1,2
 132 31 132 31 107 78.5 c 128,-1,3
 82 126 82 126 82 205 c 2,4,-1
 82 680 l 1,5,-1
 142 680 l 1,6,-1
 142 209 l 2,7,8
 142 163 142 163 159 137 c 128,-1,9
 176 111 176 111 221 101 c 128,-1,10
 266 91 266 91 348 91 c 0,11,12
 422 91 422 91 465.5 99.5 c 128,-1,13
 509 108 509 108 528 129 c 128,-1,14
 547 150 547 150 547 189 c 0,15,16
 547 230 547 230 523.5 260.5 c 128,-1,17
 500 291 500 291 440 328 c 1,18,19
 372 289 372 289 345 258 c 128,-1,20
 318 227 318 227 316 191 c 1,21,22
 271 191 271 191 271 242 c 0,23,24
 271 278 271 278 293.5 310 c 128,-1,25
 316 342 316 342 363 370 c 1,26,27
 327 395 327 395 309.5 432 c 128,-1,28
 292 469 292 469 292 524 c 0,29,30
 292 604 292 604 331.5 647 c 128,-1,31
 371 690 371 690 440 690 c 0,32,33
 514 690 514 690 550.5 646 c 128,-1,34
 587 602 587 602 587 528 c 0,35,36
 587 473 587 473 566.5 435.5 c 128,-1,37
 546 398 546 398 510 373 c 1,38,39
 565 337 565 337 586 291.5 c 128,-1,40
 607 246 607 246 607 183 c 0,41,42
 607 103 607 103 576 61 c 128,-1,43
 545 19 545 19 486.5 4.5 c 128,-1,44
 428 -10 428 -10 346 -10 c 0,0,1
438 414 m 1,45,46
 487 443 487 443 508 470 c 128,-1,47
 529 497 529 497 529 527 c 0,48,49
 529 589 529 589 439 589 c 0,50,51
 393 589 393 589 371.5 573 c 128,-1,52
 350 557 350 557 350 523 c 0,53,54
 350 488 350 488 371 464 c 128,-1,55
 392 440 392 440 438 414 c 1,45,46
EndSplineSet
EndChar

StartChar: u1E119
Encoding: 29 123161 29
Width: 644
GlyphClass: 2
Flags: W
AnchorPoint: "+BBEENQQ3BEsEPARPBD0EPQQ+BDUA--0" 333 680 basechar 0
LayerCount: 2
Fore
SplineSet
326 -10 m 0,0,1
 230 -10 230 -10 173.5 6 c 128,-1,2
 117 22 117 22 92.5 58.5 c 128,-1,3
 68 95 68 95 68 157 c 0,4,5
 68 198 68 198 77.5 225.5 c 128,-1,6
 87 253 87 253 105 277 c 0,7,8
 116 291 116 291 130 303.5 c 128,-1,9
 144 316 144 316 168 331.5 c 128,-1,10
 192 347 192 347 232 369 c 0,11,12
 278 395 278 395 300.5 415 c 128,-1,13
 323 435 323 435 331 456.5 c 128,-1,14
 339 478 339 478 339 508 c 0,15,16
 339 552 339 552 316.5 570.5 c 128,-1,17
 294 589 294 589 234 589 c 0,18,19
 182 589 182 589 157.5 577.5 c 128,-1,20
 133 566 133 566 133 540 c 0,21,22
 133 516 133 516 153 507 c 128,-1,23
 173 498 173 498 225 498 c 1,24,25
 225 415 225 415 164 415 c 0,26,27
 124 415 124 415 101 448 c 128,-1,28
 78 481 78 481 78 533 c 0,29,30
 78 608 78 608 116 649 c 128,-1,31
 154 690 154 690 236 690 c 0,32,33
 321 690 321 690 360 647 c 128,-1,34
 399 604 399 604 399 505 c 0,35,36
 399 453 399 453 390.5 421 c 128,-1,37
 382 389 382 389 362 360 c 0,38,39
 345 335 345 335 317.5 315.5 c 128,-1,40
 290 296 290 296 240 269 c 0,41,42
 176 234 176 234 151 211 c 128,-1,43
 126 188 126 188 126 158 c 0,44,45
 126 132 126 132 144 117.5 c 128,-1,46
 162 103 162 103 205 97 c 128,-1,47
 248 91 248 91 323 91 c 0,48,49
 395 91 395 91 434 100.5 c 128,-1,50
 473 110 473 110 487.5 136 c 128,-1,51
 502 162 502 162 502 209 c 2,52,-1
 502 680 l 1,53,-1
 562 680 l 1,54,-1
 562 203 l 2,55,56
 562 122 562 122 540 75.5 c 128,-1,57
 518 29 518 29 466.5 9.5 c 128,-1,58
 415 -10 415 -10 326 -10 c 0,0,1
EndSplineSet
EndChar

StartChar: u1E11A
Encoding: 30 123162 30
Width: 598
GlyphClass: 2
Flags: W
AnchorPoint: "+BBEENQQ3BEsEPARPBD0EPQQ+BDUA--0" 287 680 basechar 0
LayerCount: 2
Fore
SplineSet
294 -10 m 0,0,1
 171 -10 171 -10 117 31 c 128,-1,2
 63 72 63 72 63 167 c 0,3,4
 63 214 63 214 77 241.5 c 128,-1,5
 91 269 91 269 113 269 c 0,6,7
 122 269 122 269 131 265 c 1,8,9
 121 238 121 238 121 209 c 0,10,11
 121 165 121 165 136 139 c 128,-1,12
 151 113 151 113 188.5 102 c 128,-1,13
 226 91 226 91 293 91 c 0,14,15
 358 91 358 91 394.5 101 c 128,-1,16
 431 111 431 111 446 137 c 128,-1,17
 461 163 461 163 461 209 c 2,18,-1
 461 486 l 2,19,20
 461 539 461 539 436 560.5 c 128,-1,21
 411 582 411 582 349 582 c 2,22,-1
 296 582 l 1,23,24
 257 524 257 524 242 493.5 c 128,-1,25
 227 463 227 463 227 440 c 0,26,27
 227 414 227 414 245.5 404.5 c 128,-1,28
 264 395 264 395 316 395 c 1,29,30
 316 352 316 352 298 329 c 128,-1,31
 280 306 280 306 247 306 c 0,32,33
 209 306 209 306 184.5 333.5 c 128,-1,34
 160 361 160 361 160 407 c 0,35,36
 160 445 160 445 174.5 482.5 c 128,-1,37
 189 520 189 520 231 578 c 1,38,-1
 229 582 l 1,39,-1
 68 582 l 1,40,-1
 68 620 l 1,41,-1
 90 680 l 1,42,-1
 343 680 l 2,43,44
 409 680 409 680 448 661 c 128,-1,45
 487 642 487 642 504 598.5 c 128,-1,46
 521 555 521 555 521 482 c 2,47,-1
 521 203 l 2,48,49
 521 125 521 125 500 78.5 c 128,-1,50
 479 32 479 32 429.5 11 c 128,-1,51
 380 -10 380 -10 294 -10 c 0,0,1
EndSplineSet
EndChar

StartChar: u1E11B
Encoding: 31 123163 31
Width: 658
GlyphClass: 2
Flags: W
AnchorPoint: "+BBEENQQ3BEsEPARPBD0EPQQ+BDUA--0" 339 680 basechar 0
LayerCount: 2
Fore
SplineSet
227 -10 m 256,0,1
 147 -10 147 -10 108.5 35.5 c 128,-1,2
 70 81 70 81 70 173 c 0,3,4
 70 268 70 268 111 373 c 128,-1,5
 152 478 152 478 219 578 c 1,6,-1
 219 582 l 1,7,-1
 88 582 l 1,8,-1
 88 619 l 1,9,-1
 110 680 l 1,10,-1
 399 680 l 2,11,12
 465 680 465 680 503.5 661 c 128,-1,13
 542 642 542 642 559 598.5 c 128,-1,14
 576 555 576 555 576 482 c 2,15,-1
 576 0 l 1,16,-1
 516 0 l 1,17,-1
 516 486 l 2,18,19
 516 539 516 539 491 560.5 c 128,-1,20
 466 582 466 582 405 582 c 2,21,-1
 293 582 l 1,22,23
 211 463 211 463 170.5 361 c 128,-1,24
 130 259 130 259 130 179 c 0,25,26
 130 127 130 127 151.5 109 c 128,-1,27
 173 91 173 91 229 91 c 0,28,29
 284 91 284 91 305 104.5 c 128,-1,30
 326 118 326 118 326 145 c 0,31,32
 326 174 326 174 304.5 183 c 128,-1,33
 283 192 283 192 239 192 c 1,34,35
 239 231 239 231 252.5 253 c 128,-1,36
 266 275 266 275 295 275 c 0,37,38
 329 275 329 275 355 242 c 128,-1,39
 381 209 381 209 381 144 c 0,40,41
 381 71 381 71 344 30.5 c 128,-1,42
 307 -10 307 -10 227 -10 c 256,0,1
EndSplineSet
EndChar

StartChar: u1E11C
Encoding: 32 123164 32
Width: 619
GlyphClass: 2
Flags: W
AnchorPoint: "+BBEENQQ3BEsEPARPBD0EPQQ+BDUA--0" 302 680 basechar 0
LayerCount: 2
Fore
SplineSet
79 0 m 1,0,-1
 79 263 l 1,1,-1
 139 263 l 1,2,-1
 139 231 l 2,3,4
 139 201 139 201 139 183 c 128,-1,5
 139 165 139 165 137 139 c 1,6,-1
 143 139 l 1,7,8
 158 187 158 187 200.5 207.5 c 128,-1,9
 243 228 243 228 308 228 c 256,10,11
 373 228 373 228 415.5 207 c 128,-1,12
 458 186 458 186 473 139 c 1,13,-1
 479 139 l 1,14,15
 478 165 478 165 477.5 187.5 c 128,-1,16
 477 210 477 210 477 250 c 2,17,-1
 477 481 l 2,18,19
 477 523 477 523 464.5 546.5 c 128,-1,20
 452 570 452 570 416 579.5 c 128,-1,21
 380 589 380 589 309 589 c 256,22,23
 238 589 238 589 199 584 c 128,-1,24
 160 579 160 579 145 567 c 128,-1,25
 130 555 130 555 130 534 c 0,26,27
 130 509 130 509 149.5 498.5 c 128,-1,28
 169 488 169 488 221 488 c 1,29,30
 221 405 221 405 160 405 c 0,31,32
 122 405 122 405 98.5 439 c 128,-1,33
 75 473 75 473 75 527 c 0,34,35
 75 616 75 616 130 653 c 128,-1,36
 185 690 185 690 309 690 c 0,37,38
 392 690 392 690 442 671.5 c 128,-1,39
 492 653 492 653 514.5 609.5 c 128,-1,40
 537 566 537 566 537 490 c 2,41,-1
 537 0 l 1,42,-1
 477 0 l 1,43,-1
 477 40 l 2,44,45
 477 86 477 86 438.5 106.5 c 128,-1,46
 400 127 400 127 308 127 c 256,47,48
 216 127 216 127 177.5 107 c 128,-1,49
 139 87 139 87 139 40 c 2,50,-1
 139 0 l 1,51,-1
 79 0 l 1,0,-1
EndSplineSet
EndChar

StartChar: u1E11D
Encoding: 33 123165 33
Width: 700
GlyphClass: 2
Flags: W
AnchorPoint: "+BBEENQQ3BEsEPARPBD0EPQQ+BDUA--0" 349 680 basechar 0
LayerCount: 2
Fore
SplineSet
84 0 m 1,0,-1
 84 562 l 2,1,2
 84 630 84 630 100.5 660 c 128,-1,3
 117 690 117 690 156 690 c 0,4,5
 186 690 186 690 202 665.5 c 128,-1,6
 218 641 218 641 218 586 c 1,7,8
 177 586 177 586 160.5 575 c 128,-1,9
 144 564 144 564 144 523 c 2,10,-1
 144 344 l 2,11,12
 144 330 144 330 144 311 c 128,-1,13
 144 292 144 292 142 257 c 1,14,-1
 148 257 l 1,15,16
 175 332 175 332 214.5 403 c 128,-1,17
 254 474 254 474 302.5 532.5 c 128,-1,18
 351 591 351 591 403 628 c 0,19,20
 445 658 445 658 488.5 669 c 128,-1,21
 532 680 532 680 587 680 c 2,22,-1
 619 680 l 1,23,-1
 619 584 l 1,24,25
 580 579 580 579 560.5 564.5 c 128,-1,26
 541 550 541 550 541 517 c 0,27,28
 541 487 541 487 553 451.5 c 128,-1,29
 565 416 565 416 582 375 c 0,30,31
 604 324 604 324 622 268.5 c 128,-1,32
 640 213 640 213 640 154 c 0,33,34
 640 -10 640 -10 483 -10 c 0,35,36
 404 -10 404 -10 366.5 30.5 c 128,-1,37
 329 71 329 71 329 144 c 0,38,39
 329 209 329 209 355 242 c 128,-1,40
 381 275 381 275 415 275 c 0,41,42
 444 275 444 275 457.5 253 c 128,-1,43
 471 231 471 231 471 192 c 1,44,45
 427 192 427 192 405.5 182.5 c 128,-1,46
 384 173 384 173 384 144 c 0,47,48
 384 118 384 118 405 104.5 c 128,-1,49
 426 91 426 91 484 91 c 0,50,51
 536 91 536 91 558 105 c 128,-1,52
 580 119 580 119 580 162 c 0,53,54
 580 204 580 204 564 251.5 c 128,-1,55
 548 299 548 299 528 345 c 0,56,57
 510 389 510 389 496 428.5 c 128,-1,58
 482 468 482 468 482 502 c 0,59,60
 482 542 482 542 502 564 c 1,61,-1
 500 569 l 1,62,63
 447 553 447 553 395.5 511 c 128,-1,64
 344 469 344 469 298.5 410.5 c 128,-1,65
 253 352 253 352 218.5 285.5 c 128,-1,66
 184 219 184 219 164 153.5 c 128,-1,67
 144 88 144 88 144 33 c 2,68,-1
 144 0 l 1,69,-1
 84 0 l 1,0,-1
EndSplineSet
EndChar

StartChar: u1E11E
Encoding: 34 123166 34
Width: 665
GlyphClass: 2
Flags: W
AnchorPoint: "+BBEENQQ3BEsEPARPBD0EPQQ+BDUA--0" 348 680 basechar 0
LayerCount: 2
Fore
SplineSet
82 0 m 1,0,-1
 82 482 l 2,1,2
 82 555 82 555 99 598.5 c 128,-1,3
 116 642 116 642 155 661 c 128,-1,4
 194 680 194 680 259 680 c 2,5,-1
 583 680 l 1,6,-1
 583 601 l 1,7,-1
 508 572 l 1,8,-1
 508 568 l 1,9,10
 587 529 587 529 587 376 c 2,11,-1
 587 184 l 2,12,13
 587 77 587 77 551 33.5 c 128,-1,14
 515 -10 515 -10 436 -10 c 256,15,16
 357 -10 357 -10 321 33.5 c 128,-1,17
 285 77 285 77 285 184 c 2,18,-1
 285 361 l 2,19,20
 285 444 285 444 311 497.5 c 128,-1,21
 337 551 337 551 395 583 c 1,22,-1
 395 587 l 1,23,24
 376 584 376 584 351.5 583 c 128,-1,25
 327 582 327 582 276 582 c 2,26,-1
 253 582 l 2,27,28
 192 582 192 582 167 560.5 c 128,-1,29
 142 539 142 539 142 486 c 2,30,-1
 142 0 l 1,31,-1
 82 0 l 1,0,-1
435 91 m 0,32,33
 491 91 491 91 509 115 c 128,-1,34
 527 139 527 139 527 198 c 2,35,-1
 527 371 l 2,36,37
 527 424 527 424 520.5 457.5 c 128,-1,38
 514 491 514 491 497.5 512.5 c 128,-1,39
 481 534 481 534 451 550 c 1,40,41
 391 520 391 520 368 480 c 128,-1,42
 345 440 345 440 345 369 c 2,43,-1
 345 198 l 2,44,45
 345 139 345 139 364 115 c 128,-1,46
 383 91 383 91 435 91 c 0,32,33
EndSplineSet
EndChar

StartChar: u1E11F
Encoding: 35 123167 35
Width: 651
GlyphClass: 2
Flags: W
AnchorPoint: "+BBEENQQ3BEsEPARPBD0EPQQ+BDUA--0" 316 680 basechar 0
LayerCount: 2
Fore
SplineSet
325 -10 m 0,0,1
 189 -10 189 -10 127 26 c 128,-1,2
 65 62 65 62 65 155 c 0,3,4
 65 220 65 220 100.5 256.5 c 128,-1,5
 136 293 136 293 195 293 c 0,6,7
 277 293 277 293 277 210 c 1,8,9
 237 210 237 210 204.5 208 c 128,-1,10
 172 206 172 206 152 198 c 0,11,12
 120 186 120 186 120 153 c 0,13,14
 120 130 120 130 137 116 c 128,-1,15
 154 102 154 102 198.5 96.5 c 128,-1,16
 243 91 243 91 327 91 c 0,17,18
 399 91 399 91 439 99.5 c 128,-1,19
 479 108 479 108 495 133 c 128,-1,20
 511 158 511 158 511 206 c 2,21,-1
 511 500 l 2,22,23
 511 553 511 553 493.5 571 c 128,-1,24
 476 589 476 589 429 589 c 0,25,26
 386 589 386 589 369 570.5 c 128,-1,27
 352 552 352 552 352 504 c 2,28,-1
 352 448 l 1,29,-1
 292 448 l 1,30,-1
 292 504 l 2,31,32
 292 553 292 553 273 571 c 128,-1,33
 254 589 254 589 205 589 c 0,34,35
 161 589 161 589 141.5 576.5 c 128,-1,36
 122 564 122 564 122 535 c 0,37,38
 122 509 122 509 140 498.5 c 128,-1,39
 158 488 158 488 201 488 c 1,40,41
 201 449 201 449 187 427 c 128,-1,42
 173 405 173 405 146 405 c 0,43,44
 111 405 111 405 89 441.5 c 128,-1,45
 67 478 67 478 67 536 c 0,46,47
 67 611 67 611 100.5 650.5 c 128,-1,48
 134 690 134 690 203 690 c 0,49,50
 254 690 254 690 281.5 669.5 c 128,-1,51
 309 649 309 649 320 603 c 1,52,-1
 324 603 l 1,53,54
 334 649 334 649 362 669.5 c 128,-1,55
 390 690 390 690 435 690 c 0,56,57
 478 690 478 690 508 674 c 128,-1,58
 538 658 538 658 554.5 618 c 128,-1,59
 571 578 571 578 571 506 c 2,60,-1
 571 207 l 2,61,62
 571 126 571 126 548 78.5 c 128,-1,63
 525 31 525 31 471 10.5 c 128,-1,64
 417 -10 417 -10 325 -10 c 0,0,1
EndSplineSet
EndChar

StartChar: u1E120
Encoding: 36 123168 36
Width: 634
GlyphClass: 2
Flags: W
AnchorPoint: "+BBEENQQ3BEsEPARPBD0EPQQ+BDUA--0" 321 680 basechar 0
LayerCount: 2
Fore
SplineSet
210 -10 m 0,0,1
 138 -10 138 -10 109 34 c 128,-1,2
 80 78 80 78 80 181 c 2,3,-1
 80 491 l 2,4,5
 80 566 80 566 101.5 609.5 c 128,-1,6
 123 653 123 653 177.5 671.5 c 128,-1,7
 232 690 232 690 331 690 c 0,8,9
 456 690 456 690 509 654.5 c 128,-1,10
 562 619 562 619 562 533 c 0,11,12
 562 474 562 474 537.5 439.5 c 128,-1,13
 513 405 513 405 475 405 c 0,14,15
 446 405 446 405 431 426.5 c 128,-1,16
 416 448 416 448 416 488 c 1,17,18
 468 488 468 488 487.5 498 c 128,-1,19
 507 508 507 508 507 534 c 0,20,21
 507 556 507 556 492.5 568 c 128,-1,22
 478 580 478 580 440 584.5 c 128,-1,23
 402 589 402 589 330 589 c 0,24,25
 252 589 252 589 211 580.5 c 128,-1,26
 170 572 170 572 155 550 c 128,-1,27
 140 528 140 528 140 485 c 2,28,-1
 140 180 l 2,29,30
 140 130 140 130 156 110.5 c 128,-1,31
 172 91 172 91 215 91 c 0,32,33
 256 91 256 91 274.5 109 c 128,-1,34
 293 127 293 127 293 170 c 2,35,-1
 293 263 l 1,36,-1
 353 263 l 1,37,-1
 353 170 l 2,38,39
 353 130 353 130 371 110.5 c 128,-1,40
 389 91 389 91 431 91 c 0,41,42
 476 91 476 91 492.5 113.5 c 128,-1,43
 509 136 509 136 509 191 c 0,44,45
 509 235 509 235 500 265 c 1,46,47
 509 269 509 269 516 269 c 0,48,49
 540 269 540 269 553.5 238.5 c 128,-1,50
 567 208 567 208 567 153 c 0,51,52
 567 -10 567 -10 435 -10 c 0,53,54
 386 -10 386 -10 360 11.5 c 128,-1,55
 334 33 334 33 326 81 c 1,56,-1
 320 81 l 1,57,58
 311 29 311 29 283 9.5 c 128,-1,59
 255 -10 255 -10 210 -10 c 0,0,1
EndSplineSet
EndChar

StartChar: u1E121
Encoding: 37 123169 37
Width: 596
GlyphClass: 2
Flags: W
AnchorPoint: "+BBEENQQ3BEsEPARPBD0EPQQ+BDUA--0" 295 680 basechar 0
LayerCount: 2
Fore
SplineSet
71 0 m 1,0,-1
 71 124 l 2,1,2
 71 164 71 164 77 194 c 128,-1,3
 83 224 83 224 106 252 c 0,4,5
 129 279 129 279 173 304.5 c 128,-1,6
 217 330 217 330 296 367 c 0,7,8
 353 394 353 394 387.5 414.5 c 128,-1,9
 422 435 422 435 439.5 451 c 128,-1,10
 457 467 457 467 462.5 481.5 c 128,-1,11
 468 496 468 496 468 512 c 0,12,13
 468 559 468 559 431 574 c 128,-1,14
 394 589 394 589 302 589 c 0,15,16
 201 589 201 589 163 577 c 128,-1,17
 125 565 125 565 125 533 c 0,18,19
 125 508 125 508 146 498 c 128,-1,20
 167 488 167 488 219 488 c 1,21,22
 219 405 219 405 156 405 c 0,23,24
 116 405 116 405 93 439 c 128,-1,25
 70 473 70 473 70 530 c 0,26,27
 70 614 70 614 127.5 652 c 128,-1,28
 185 690 185 690 302 690 c 0,29,30
 412 690 412 690 469 650.5 c 128,-1,31
 526 611 526 611 526 509 c 0,32,33
 526 477 526 477 517.5 444.5 c 128,-1,34
 509 412 509 412 487 385 c 0,35,36
 471 366 471 366 446 347 c 128,-1,37
 421 328 421 328 381 306 c 128,-1,38
 341 284 341 284 279 255 c 0,39,40
 231 233 231 233 202 218 c 128,-1,41
 173 203 173 203 158 191 c 128,-1,42
 143 179 143 179 138 164.5 c 128,-1,43
 133 150 133 150 133 129 c 2,44,-1
 133 98 l 1,45,-1
 465 98 l 1,46,-1
 465 220 l 1,47,-1
 525 220 l 1,48,-1
 525 0 l 1,49,-1
 71 0 l 1,0,-1
EndSplineSet
EndChar

StartChar: u1E122
Encoding: 38 123170 38
Width: 584
GlyphClass: 2
Flags: W
AnchorPoint: "+BBEENQQ3BEsEPARPBD0EPQQ+BDUA--0" 292 680 basechar 0
LayerCount: 2
Fore
SplineSet
319 -10 m 0,0,1
 220 -10 220 -10 164.5 8 c 128,-1,2
 109 26 109 26 86 64 c 128,-1,3
 63 102 63 102 63 162 c 0,4,5
 63 242 63 242 110.5 295.5 c 128,-1,6
 158 349 158 349 270 393 c 1,7,-1
 270 398 l 1,8,9
 221 397 221 397 183 396 c 128,-1,10
 145 395 145 395 111 395 c 2,11,-1
 76 395 l 1,12,-1
 76 486 l 1,13,14
 186 534 186 534 245 585.5 c 128,-1,15
 304 637 304 637 325 704 c 1,16,17
 393 689 393 689 393 636 c 0,18,19
 393 590 393 590 340.5 555 c 128,-1,20
 288 520 288 520 167 487 c 1,21,-1
 167 482 l 1,22,23
 196 484 196 484 229.5 485 c 128,-1,24
 263 486 263 486 323 486 c 2,25,-1
 497 486 l 1,26,-1
 497 404 l 1,27,28
 408 388 408 388 345 366 c 128,-1,29
 282 344 282 344 230 314 c 0,30,31
 175 282 175 282 149.5 250.5 c 128,-1,32
 124 219 124 219 124 174 c 0,33,34
 124 143 124 143 139.5 124.5 c 128,-1,35
 155 106 155 106 194 98.5 c 128,-1,36
 233 91 233 91 303 91 c 0,37,38
 393 91 393 91 434.5 102.5 c 128,-1,39
 476 114 476 114 476 148 c 0,40,41
 476 171 476 171 457 181.5 c 128,-1,42
 438 192 438 192 385 192 c 1,43,44
 385 275 385 275 443 275 c 0,45,46
 484 275 484 275 507.5 241.5 c 128,-1,47
 531 208 531 208 531 149 c 0,48,49
 531 64 531 64 479 27 c 128,-1,50
 427 -10 427 -10 319 -10 c 0,0,1
EndSplineSet
EndChar

StartChar: u1E123
Encoding: 39 123171 39
Width: 526
GlyphClass: 2
Flags: W
AnchorPoint: "+BBEENQQ3BEsEPARPBD0EPQQ+BDUA--0" 238 680 basechar 0
LayerCount: 2
Fore
SplineSet
402 -10 m 0,0,1
 353 -10 353 -10 332 25 c 0,2,3
 322 41 322 41 316.5 62 c 128,-1,4
 311 83 311 83 311 115 c 0,5,6
 311 150 311 150 320.5 194.5 c 128,-1,7
 330 239 330 239 342 283 c 0,8,9
 353 321 353 321 359.5 355.5 c 128,-1,10
 366 390 366 390 366 414 c 0,11,12
 366 449 366 449 348 463 c 128,-1,13
 330 477 330 477 287 477 c 2,14,-1
 52 477 l 1,15,-1
 52 680 l 1,16,-1
 97 680 l 1,17,-1
 99 664 l 2,18,19
 104 624 104 624 110.5 605 c 128,-1,20
 117 586 117 586 131.5 580.5 c 128,-1,21
 146 575 146 575 174 575 c 2,22,-1
 305 575 l 2,23,24
 379 575 379 575 405.5 548 c 128,-1,25
 432 521 432 521 432 449 c 0,26,27
 432 412 432 412 422 365.5 c 128,-1,28
 412 319 412 319 401 278 c 0,29,30
 391 238 391 238 384 205.5 c 128,-1,31
 377 173 377 173 377 153 c 0,32,33
 377 116 377 116 400 102.5 c 128,-1,34
 423 89 423 89 469 89 c 1,35,36
 469 37 469 37 451.5 13.5 c 128,-1,37
 434 -10 434 -10 402 -10 c 0,0,1
EndSplineSet
EndChar

StartChar: u1E124
Encoding: 40 123172 40
Width: 474
GlyphClass: 2
Flags: W
AnchorPoint: "+BBEENQQ3BEsEPARPBD0EPQQ+BDUA--0" 217 680 basechar 0
LayerCount: 2
Fore
SplineSet
332 0 m 1,0,-1
 332 501 l 2,1,2
 332 553 332 553 307.5 571 c 128,-1,3
 283 589 283 589 212 589 c 0,4,5
 149 589 149 589 122.5 576.5 c 128,-1,6
 96 564 96 564 96 533 c 0,7,8
 96 508 96 508 116.5 498 c 128,-1,9
 137 488 137 488 190 488 c 1,10,11
 190 405 190 405 130 405 c 0,12,13
 90 405 90 405 65.5 438.5 c 128,-1,14
 41 472 41 472 41 531 c 0,15,16
 41 690 41 690 215 690 c 0,17,18
 307 690 307 690 349.5 646.5 c 128,-1,19
 392 603 392 603 392 509 c 2,20,-1
 392 0 l 1,21,-1
 332 0 l 1,0,-1
EndSplineSet
EndChar

StartChar: u1E125
Encoding: 41 123173 41
Width: 509
GlyphClass: 2
Flags: W
AnchorPoint: "+BBEENQQ3BEsEPARPBD0EPQQ+BDUA--0" 250 680 basechar 0
LayerCount: 2
Fore
SplineSet
266 -10 m 0,0,1
 175 -10 175 -10 135 32.5 c 128,-1,2
 95 75 95 75 95 163 c 2,3,-1
 95 446 l 1,4,-1
 275 446 l 2,5,6
 335 446 335 446 362 459 c 128,-1,7
 389 472 389 472 389 513 c 0,8,9
 389 544 389 544 376.5 560.5 c 128,-1,10
 364 577 364 577 332.5 583 c 128,-1,11
 301 589 301 589 245 589 c 0,12,13
 191 589 191 589 161 585 c 128,-1,14
 131 581 131 581 119 571 c 128,-1,15
 107 561 107 561 107 542 c 0,16,17
 107 530 107 530 111 521 c 0,18,19
 108 519 108 519 103.5 518 c 128,-1,20
 99 517 99 517 95 517 c 0,21,22
 76 517 76 517 67 534 c 128,-1,23
 58 551 58 551 58 579 c 0,24,25
 58 639 58 639 101.5 664.5 c 128,-1,26
 145 690 145 690 248 690 c 0,27,28
 358 690 358 690 403 652.5 c 128,-1,29
 448 615 448 615 448 521 c 0,30,31
 448 453 448 453 429.5 415 c 128,-1,32
 411 377 411 377 371 362.5 c 128,-1,33
 331 348 331 348 266 348 c 2,34,-1
 155 348 l 1,35,-1
 155 172 l 2,36,37
 155 127 155 127 177.5 109 c 128,-1,38
 200 91 200 91 268 91 c 0,39,40
 327 91 327 91 350 102.5 c 128,-1,41
 373 114 373 114 373 139 c 0,42,43
 373 160 373 160 354 170 c 128,-1,44
 335 180 335 180 284 180 c 1,45,46
 284 263 284 263 342 263 c 0,47,48
 381 263 381 263 404.5 228 c 128,-1,49
 428 193 428 193 428 137 c 0,50,51
 428 62 428 62 389.5 26 c 128,-1,52
 351 -10 351 -10 266 -10 c 0,0,1
EndSplineSet
EndChar

StartChar: u1E126
Encoding: 42 123174 42
Width: 490
GlyphClass: 2
Flags: W
AnchorPoint: "+BBEENQQ3BEsEPARPBD0EPQQ+BDUA--0" 218 680 basechar 0
LayerCount: 2
Fore
SplineSet
256 -10 m 0,0,1
 162 -10 162 -10 121 33.5 c 128,-1,2
 80 77 80 77 80 171 c 2,3,-1
 80 516 l 2,4,5
 80 605 80 605 108 647.5 c 128,-1,6
 136 690 136 690 208 690 c 0,7,8
 257 690 257 690 285 671 c 128,-1,9
 313 652 313 652 329 598 c 2,10,-1
 346 540 l 2,11,12
 355 509 355 509 369 498 c 128,-1,13
 383 487 383 487 420 487 c 2,14,-1
 439 487 l 1,15,16
 439 447 439 447 423.5 424 c 128,-1,17
 408 401 408 401 375 401 c 0,18,19
 346 401 346 401 329 418.5 c 128,-1,20
 312 436 312 436 302 470 c 2,21,-1
 286 527 l 2,22,23
 276 565 276 565 260.5 577 c 128,-1,24
 245 589 245 589 209 589 c 0,25,26
 168 589 168 589 154 574 c 128,-1,27
 140 559 140 559 140 516 c 2,28,-1
 140 180 l 2,29,30
 140 145 140 145 149.5 125.5 c 128,-1,31
 159 106 159 106 185 98.5 c 128,-1,32
 211 91 211 91 260 91 c 0,33,34
 318 91 318 91 341.5 102.5 c 128,-1,35
 365 114 365 114 365 145 c 0,36,37
 365 171 365 171 345.5 181.5 c 128,-1,38
 326 192 326 192 276 192 c 1,39,40
 276 275 276 275 334 275 c 0,41,42
 373 275 373 275 396.5 240 c 128,-1,43
 420 205 420 205 420 149 c 0,44,45
 420 67 420 67 379.5 28.5 c 128,-1,46
 339 -10 339 -10 256 -10 c 0,0,1
EndSplineSet
EndChar

StartChar: u1E127
Encoding: 43 123175 43
Width: 555
GlyphClass: 2
Flags: W
AnchorPoint: "+BBEENQQ3BEsEPARPBD0EPQQ+BDUA--0" 267 680 basechar 0
LayerCount: 2
Fore
SplineSet
272 -10 m 256,0,1
 153 -10 153 -10 104.5 31 c 128,-1,2
 56 72 56 72 56 146 c 0,3,4
 56 208 56 208 80 241.5 c 128,-1,5
 104 275 104 275 144 275 c 0,6,7
 203 275 203 275 203 192 c 1,8,9
 153 192 153 192 132 181.5 c 128,-1,10
 111 171 111 171 111 147 c 0,11,12
 111 113 111 113 148.5 102 c 128,-1,13
 186 91 186 91 272 91 c 0,14,15
 361 91 361 91 397 111.5 c 128,-1,16
 433 132 433 132 433 187 c 0,17,18
 433 247 433 247 390 284.5 c 128,-1,19
 347 322 347 322 246 350 c 1,20,-1
 246 460 l 1,21,-1
 371 578 l 1,22,-1
 371 582 l 1,23,-1
 70 582 l 1,24,-1
 70 620 l 1,25,-1
 92 680 l 1,26,-1
 467 680 l 1,27,-1
 467 587 l 1,28,-1
 315 445 l 1,29,-1
 315 441 l 1,30,31
 406 405 406 405 448 346 c 128,-1,32
 490 287 490 287 490 192 c 0,33,34
 490 87 490 87 440.5 38.5 c 128,-1,35
 391 -10 391 -10 272 -10 c 256,0,1
EndSplineSet
EndChar

StartChar: u1E128
Encoding: 44 123176 44
Width: 656
GlyphClass: 2
Flags: W
AnchorPoint: "+BBEENQQ3BEsEPARPBD0EPQQ+BDUA--0" 350 680 basechar 0
LayerCount: 2
Fore
SplineSet
227 -10 m 256,0,1
 150 -10 150 -10 115.5 33 c 128,-1,2
 81 76 81 76 81 173 c 2,3,-1
 81 507 l 2,4,5
 81 604 81 604 115.5 647 c 128,-1,6
 150 690 150 690 227 690 c 256,7,8
 304 690 304 690 338.5 647 c 128,-1,9
 373 604 373 604 373 507 c 2,10,-1
 373 392 l 1,11,-1
 512 392 l 1,12,-1
 512 680 l 1,13,-1
 572 680 l 1,14,-1
 572 0 l 1,15,-1
 512 0 l 1,16,-1
 512 294 l 1,17,-1
 373 294 l 1,18,-1
 373 173 l 2,19,20
 373 76 373 76 338.5 33 c 128,-1,21
 304 -10 304 -10 227 -10 c 256,0,1
227 91 m 0,22,23
 277 91 277 91 295 111 c 128,-1,24
 313 131 313 131 313 186 c 2,25,-1
 313 494 l 2,26,27
 313 549 313 549 295 569 c 128,-1,28
 277 589 277 589 227 589 c 0,29,30
 178 589 178 589 159.5 569 c 128,-1,31
 141 549 141 549 141 494 c 2,32,-1
 141 186 l 2,33,34
 141 131 141 131 159.5 111 c 128,-1,35
 178 91 178 91 227 91 c 0,22,23
EndSplineSet
EndChar

StartChar: u1E129
Encoding: 45 123177 45
Width: 552
GlyphClass: 2
Flags: W
AnchorPoint: "+BBEENQQ3BEsEPARPBD0EPQQ+BDUA--0" 276 680 basechar 0
LayerCount: 2
Fore
SplineSet
285 -10 m 256,0,1
 203 -10 203 -10 155 6 c 128,-1,2
 107 22 107 22 86.5 55 c 128,-1,3
 66 88 66 88 66 138 c 0,4,5
 66 179 66 179 80 204.5 c 128,-1,6
 94 230 94 230 114 230 c 0,7,8
 123 230 123 230 132 226 c 1,9,10
 128 214 128 214 125 201 c 128,-1,11
 122 188 122 188 122 172 c 0,12,13
 122 140 122 140 134.5 122 c 128,-1,14
 147 104 147 104 181.5 97.5 c 128,-1,15
 216 91 216 91 280 91 c 0,16,17
 343 91 343 91 376 99.5 c 128,-1,18
 409 108 409 108 421 129.5 c 128,-1,19
 433 151 433 151 433 189 c 0,20,21
 433 226 433 226 422 246 c 128,-1,22
 411 266 411 266 383.5 273.5 c 128,-1,23
 356 281 356 281 307 281 c 2,24,-1
 225 281 l 2,25,26
 143 281 143 281 108.5 308 c 128,-1,27
 74 335 74 335 74 392 c 0,28,29
 74 424 74 424 85.5 447 c 128,-1,30
 97 470 97 470 125 479 c 1,31,-1
 125 484 l 1,32,33
 97 492 97 492 85.5 513.5 c 128,-1,34
 74 535 74 535 74 568 c 0,35,36
 74 633 74 633 123.5 661.5 c 128,-1,37
 173 690 173 690 279 690 c 0,38,39
 389 690 389 690 437 657.5 c 128,-1,40
 485 625 485 625 485 549 c 0,41,42
 485 495 485 495 465 464.5 c 128,-1,43
 445 434 445 434 408 434 c 0,44,45
 378 434 378 434 363 456 c 128,-1,46
 348 478 348 478 348 515 c 1,47,48
 391 515 391 515 410.5 521.5 c 128,-1,49
 430 528 430 528 430 548 c 0,50,51
 430 564 430 564 420 572.5 c 128,-1,52
 410 581 410 581 379 585 c 128,-1,53
 348 589 348 589 283 589 c 0,54,55
 214 589 214 589 182.5 585 c 128,-1,56
 151 581 151 581 142.5 573 c 128,-1,57
 134 565 134 565 134 553 c 0,58,59
 134 538 134 538 146.5 531.5 c 128,-1,60
 159 525 159 525 200 525 c 1,61,-1
 200 443 l 1,62,63
 159 443 159 443 146.5 435 c 128,-1,64
 134 427 134 427 134 410 c 0,65,66
 134 394 134 394 150.5 388 c 128,-1,67
 167 382 167 382 217 382 c 2,68,-1
 315 382 l 2,69,70
 413 382 413 382 452.5 336.5 c 128,-1,71
 492 291 492 291 492 190 c 0,72,73
 492 120 492 120 474.5 76 c 128,-1,74
 457 32 457 32 412 11 c 128,-1,75
 367 -10 367 -10 285 -10 c 256,0,1
EndSplineSet
EndChar

StartChar: u1E12A
Encoding: 46 123178 46
Width: 514
GlyphClass: 2
Flags: W
AnchorPoint: "+BBEENQQ3BEsEPARPBD0EPQQ+BDUA--0" 258 680 basechar 0
LayerCount: 2
Fore
SplineSet
144 0 m 1,0,-1
 144 582 l 1,1,-1
 39 582 l 1,2,-1
 39 620 l 1,3,-1
 61 680 l 1,4,-1
 204 680 l 1,5,-1
 204 413 l 1,6,-1
 448 413 l 1,7,-1
 448 375 l 1,8,-1
 426 315 l 1,9,-1
 204 315 l 1,10,-1
 204 228 l 2,11,12
 204 191 204 191 203.5 166.5 c 128,-1,13
 203 142 203 142 201 111 c 1,14,-1
 206 111 l 1,15,16
 218 155 218 155 256 155 c 0,17,18
 273 155 273 155 289.5 146 c 128,-1,19
 306 137 306 137 328 122 c 0,20,21
 347 109 347 109 365 99 c 128,-1,22
 383 89 383 89 399 89 c 0,23,24
 426 89 426 89 426 122 c 0,25,26
 426 137 426 137 420 161 c 1,27,28
 428 164 428 164 435 164 c 0,29,30
 455 164 455 164 465.5 140.5 c 128,-1,31
 476 117 476 117 476 82 c 0,32,33
 476 40 476 40 457 15 c 128,-1,34
 438 -10 438 -10 401 -10 c 0,35,36
 370 -10 370 -10 346.5 2.5 c 128,-1,37
 323 15 323 15 299 31 c 0,38,39
 282 43 282 43 266.5 51.5 c 128,-1,40
 251 60 251 60 236 60 c 0,41,42
 217 60 217 60 210.5 50.5 c 128,-1,43
 204 41 204 41 204 18 c 2,44,-1
 204 0 l 1,45,-1
 144 0 l 1,0,-1
EndSplineSet
EndChar

StartChar: u1E12B
Encoding: 47 123179 47
Width: 486
GlyphClass: 2
Flags: W
AnchorPoint: "+BBEENQQ3BEsEPARPBD0EPQQ+BDUA--0" 238 680 basechar 0
LayerCount: 2
Fore
SplineSet
257 -10 m 256,0,1
 178 -10 178 -10 142 33.5 c 128,-1,2
 106 77 106 77 106 184 c 2,3,-1
 106 361 l 2,4,5
 106 444 106 444 132 497.5 c 128,-1,6
 158 551 158 551 216 583 c 1,7,-1
 216 587 l 1,8,9
 197 584 197 584 172.5 583 c 128,-1,10
 148 582 148 582 97 582 c 2,11,-1
 42 582 l 1,12,-1
 42 620 l 1,13,-1
 64 680 l 1,14,-1
 404 680 l 1,15,-1
 404 601 l 1,16,-1
 329 572 l 1,17,-1
 329 568 l 1,18,19
 408 529 408 529 408 376 c 2,20,-1
 408 184 l 2,21,22
 408 77 408 77 372 33.5 c 128,-1,23
 336 -10 336 -10 257 -10 c 256,0,1
257 91 m 256,24,25
 310 91 310 91 329 115 c 128,-1,26
 348 139 348 139 348 198 c 2,27,-1
 348 371 l 2,28,29
 348 424 348 424 341.5 457.5 c 128,-1,30
 335 491 335 491 318.5 512.5 c 128,-1,31
 302 534 302 534 272 550 c 1,32,33
 212 520 212 520 189 480 c 128,-1,34
 166 440 166 440 166 369 c 2,35,-1
 166 198 l 2,36,37
 166 139 166 139 185 115 c 128,-1,38
 204 91 204 91 257 91 c 256,24,25
EndSplineSet
EndChar

StartChar: u1E12C
Encoding: 48 123180 48
Width: 549
GlyphClass: 2
Flags: W
AnchorPoint: "+BBEENQQ3BEsEPARPBD0EPQQ+BDUA--0" 272 680 basechar 0
LayerCount: 2
Fore
SplineSet
275 -10 m 0,0,1
 194 -10 194 -10 147 8 c 128,-1,2
 100 26 100 26 79.5 61 c 128,-1,3
 59 96 59 96 59 147 c 0,4,5
 59 207 59 207 83 241 c 128,-1,6
 107 275 107 275 147 275 c 0,7,8
 206 275 206 275 206 192 c 1,9,10
 156 192 156 192 135 182 c 128,-1,11
 114 172 114 172 114 149 c 0,12,13
 114 117 114 117 150.5 104 c 128,-1,14
 187 91 187 91 276 91 c 0,15,16
 363 91 363 91 399.5 111.5 c 128,-1,17
 436 132 436 132 436 181 c 0,18,19
 436 222 436 222 407.5 250.5 c 128,-1,20
 379 279 379 279 303 293 c 1,21,-1
 303 395 l 1,22,23
 365 416 365 416 392.5 442 c 128,-1,24
 420 468 420 468 420 507 c 0,25,26
 420 553 420 553 387 571 c 128,-1,27
 354 589 354 589 277 589 c 0,28,29
 193 589 193 589 159.5 577 c 128,-1,30
 126 565 126 565 126 533 c 0,31,32
 126 510 126 510 145.5 499 c 128,-1,33
 165 488 165 488 220 488 c 1,34,35
 220 448 220 448 204 426.5 c 128,-1,36
 188 405 188 405 158 405 c 0,37,38
 118 405 118 405 94.5 438.5 c 128,-1,39
 71 472 71 472 71 528 c 0,40,41
 71 611 71 611 121 650.5 c 128,-1,42
 171 690 171 690 277 690 c 0,43,44
 380 690 380 690 430 648.5 c 128,-1,45
 480 607 480 607 480 515 c 0,46,47
 480 463 480 463 457 429.5 c 128,-1,48
 434 396 434 396 388 375 c 1,49,-1
 388 371 l 1,50,51
 429 353 429 353 452 322.5 c 128,-1,52
 475 292 475 292 484 255.5 c 128,-1,53
 493 219 493 219 493 181 c 0,54,55
 493 82 493 82 442.5 36 c 128,-1,56
 392 -10 392 -10 275 -10 c 0,0,1
EndSplineSet
EndChar

StartChar: u1E130
Encoding: 49 123184 49
Width: 0
GlyphClass: 4
Flags: W
AnchorPoint: "+BBEENQQ3BEsEPARPBD0EPQQ+BDUA--0" -241 680 mark 0
LayerCount: 2
Fore
SplineSet
-272 784 m 1,0,-1
 -272 993 l 1,1,-1
 -209 993 l 1,2,-1
 -209 784 l 1,3,-1
 -272 784 l 1,0,-1
EndSplineSet
EndChar

StartChar: u1E131
Encoding: 50 123185 50
Width: 0
GlyphClass: 4
Flags: W
AnchorPoint: "+BBEENQQ3BEsEPARPBD0EPQQ+BDUA--0" -258 680 mark 0
LayerCount: 2
Fore
SplineSet
-258 921 m 256,0,1
 -280 921 -280 921 -294 934.5 c 128,-1,2
 -308 948 -308 948 -308 971 c 256,3,4
 -308 994 -308 994 -294 1007.5 c 128,-1,5
 -280 1021 -280 1021 -258 1021 c 256,6,7
 -236 1021 -236 1021 -222 1007.5 c 128,-1,8
 -208 994 -208 994 -208 971 c 256,9,10
 -208 948 -208 948 -222 934.5 c 128,-1,11
 -236 921 -236 921 -258 921 c 256,0,1
-398 802 m 1,12,-1
 -398 869 l 1,13,-1
 -118 869 l 1,14,-1
 -118 802 l 1,15,-1
 -398 802 l 1,12,-1
EndSplineSet
EndChar

StartChar: u1E132
Encoding: 51 123186 51
Width: 0
GlyphClass: 4
Flags: W
AnchorPoint: "+BBEENQQ3BEsEPARPBD0EPQQ+BDUA--0" -263 680 mark 0
LayerCount: 2
Fore
SplineSet
-262 778 m 256,0,1
 -335 778 -335 778 -369.5 815.5 c 128,-1,2
 -404 853 -404 853 -404 922 c 1,3,-1
 -362 922 l 1,4,5
 -360 883 -360 883 -333 868.5 c 128,-1,6
 -306 854 -306 854 -262 854 c 256,7,8
 -218 854 -218 854 -191 868.5 c 128,-1,9
 -164 883 -164 883 -162 922 c 1,10,-1
 -121 922 l 1,11,12
 -121 853 -121 853 -155 815.5 c 128,-1,13
 -189 778 -189 778 -262 778 c 256,0,1
EndSplineSet
EndChar

StartChar: u1E133
Encoding: 52 123187 52
Width: 0
GlyphClass: 4
Flags: W
AnchorPoint: "+BBEENQQ3BEsEPARPBD0EPQQ+BDUA--0" -265 680 mark 0
LayerCount: 2
Fore
SplineSet
-265 773 m 0,0,1
 -308 773 -308 773 -333 800.5 c 128,-1,2
 -358 828 -358 828 -358 874 c 256,3,4
 -358 920 -358 920 -333 947.5 c 128,-1,5
 -308 975 -308 975 -265 975 c 0,6,7
 -221 975 -221 975 -196.5 947.5 c 128,-1,8
 -172 920 -172 920 -172 874 c 256,9,10
 -172 828 -172 828 -196.5 800.5 c 128,-1,11
 -221 773 -221 773 -265 773 c 0,0,1
-265 835 m 256,12,13
 -212 835 -212 835 -212 874 c 256,14,15
 -212 913 -212 913 -265 913 c 256,16,17
 -318 913 -318 913 -318 874 c 256,18,19
 -318 835 -318 835 -265 835 c 256,12,13
EndSplineSet
EndChar

StartChar: u1E134
Encoding: 53 123188 53
Width: 0
GlyphClass: 4
Flags: W
AnchorPoint: "+BBEENQQ3BEsEPARPBD0EPQQ+BDUA--0" -260 680 mark 0
LayerCount: 2
Fore
SplineSet
-400 802 m 1,0,-1
 -400 869 l 1,1,-1
 -120 869 l 1,2,-1
 -120 802 l 1,3,-1
 -400 802 l 1,0,-1
EndSplineSet
EndChar

StartChar: u1E135
Encoding: 54 123189 54
Width: 0
GlyphClass: 4
Flags: W
AnchorPoint: "+BBEENQQ3BEsEPARPBD0EPQQ+BDUA--0" -253 680 mark 0
LayerCount: 2
Fore
SplineSet
-394 789 m 1,0,1
 -394 858 -394 858 -360 895.5 c 128,-1,2
 -326 933 -326 933 -253 933 c 256,3,4
 -180 933 -180 933 -145.5 895.5 c 128,-1,5
 -111 858 -111 858 -111 789 c 1,6,-1
 -153 789 l 1,7,8
 -155 828 -155 828 -182 842.5 c 128,-1,9
 -209 857 -209 857 -253 857 c 256,10,11
 -297 857 -297 857 -324 842.5 c 128,-1,12
 -351 828 -351 828 -353 789 c 1,13,-1
 -394 789 l 1,0,1
EndSplineSet
EndChar

StartChar: u1E136
Encoding: 55 123190 55
Width: 0
GlyphClass: 4
Flags: W
AnchorPoint: "+BBEENQQ3BEsEPARPBD0EPQQ+BDUA--0" -259 680 mark 0
LayerCount: 2
Fore
SplineSet
-259 773 m 256,0,1
 -307 773 -307 773 -332.5 798.5 c 128,-1,2
 -358 824 -358 824 -358 867 c 0,3,4
 -358 900 -358 900 -339.5 923.5 c 128,-1,5
 -321 947 -321 947 -285 954 c 1,6,-1
 -285 1039 l 1,7,-1
 -233 1039 l 1,8,-1
 -233 954 l 1,9,10
 -197 947 -197 947 -178.5 923.5 c 128,-1,11
 -160 900 -160 900 -160 867 c 0,12,13
 -160 824 -160 824 -185.5 798.5 c 128,-1,14
 -211 773 -211 773 -259 773 c 256,0,1
-259 835 m 256,15,16
 -231 835 -231 835 -215.5 842 c 128,-1,17
 -200 849 -200 849 -200 867 c 256,18,19
 -200 885 -200 885 -215.5 892 c 128,-1,20
 -231 899 -231 899 -259 899 c 256,21,22
 -287 899 -287 899 -302.5 892 c 128,-1,23
 -318 885 -318 885 -318 867 c 256,24,25
 -318 849 -318 849 -302.5 842 c 128,-1,26
 -287 835 -287 835 -259 835 c 256,15,16
EndSplineSet
EndChar

StartChar: u1E137
Encoding: 56 123191 56
Width: 452
Flags: W
LayerCount: 2
Fore
SplineSet
315 345 m 1,0,-1
 315 414 l 2,1,2
 315 426 315 426 315.5 435.5 c 128,-1,3
 316 445 316 445 317 458 c 1,4,-1
 312 458 l 1,5,6
 299 427 299 427 267 411 c 128,-1,7
 235 395 235 395 194 395 c 0,8,9
 59 395 59 395 59 526 c 0,10,11
 59 608 59 608 110.5 649 c 128,-1,12
 162 690 162 690 253 690 c 0,13,14
 375 690 375 690 375 600 c 1,15,-1
 299 600 l 2,16,17
 199 600 199 600 159 578 c 128,-1,18
 119 556 119 556 119 526 c 0,19,20
 119 499 119 499 138 486.5 c 128,-1,21
 157 474 157 474 198 474 c 256,22,23
 239 474 239 474 267 488 c 128,-1,24
 295 502 295 502 315 534 c 1,25,-1
 375 534 l 1,26,-1
 375 345 l 1,27,-1
 315 345 l 1,0,-1
EndSplineSet
EndChar

StartChar: u1E138
Encoding: 57 123192 57
Width: 411
Flags: W
LayerCount: 2
Fore
SplineSet
267 345 m 1,0,-1
 267 378 l 2,1,2
 267 428 267 428 268 462 c 128,-1,3
 269 496 269 496 271 533 c 1,4,-1
 266 533 l 1,5,6
 249 483 249 483 212 462.5 c 128,-1,7
 175 442 175 442 134 442 c 0,8,9
 84 442 84 442 68 466.5 c 128,-1,10
 52 491 52 491 52 527 c 1,11,-1
 77 527 l 2,12,13
 151 527 151 527 192.5 546 c 128,-1,14
 234 565 234 565 250.5 599.5 c 128,-1,15
 267 634 267 634 267 680 c 1,16,-1
 327 680 l 1,17,-1
 327 345 l 1,18,-1
 267 345 l 1,0,-1
EndSplineSet
EndChar

StartChar: u1E139
Encoding: 58 123193 58
Width: 411
Flags: W
LayerCount: 2
Fore
SplineSet
84 345 m 1,0,-1
 84 680 l 1,1,-1
 144 680 l 1,2,-1
 144 647 l 2,3,4
 144 598 144 598 143 564 c 128,-1,5
 142 530 142 530 140 492 c 1,6,-1
 145 492 l 1,7,8
 162 542 162 542 199.5 562.5 c 128,-1,9
 237 583 237 583 277 583 c 0,10,11
 327 583 327 583 343 558.5 c 128,-1,12
 359 534 359 534 359 498 c 1,13,-1
 334 498 l 2,14,15
 260 498 260 498 218.5 479 c 128,-1,16
 177 460 177 460 160.5 426 c 128,-1,17
 144 392 144 392 144 345 c 1,18,-1
 84 345 l 1,0,-1
EndSplineSet
EndChar

StartChar: u1E13A
Encoding: 59 123194 59
Width: 432
Flags: W
LayerCount: 2
Fore
SplineSet
94 337 m 0,0,1
 76 337 76 337 66 363 c 128,-1,2
 56 389 56 389 56 430 c 0,3,4
 56 486 56 486 83 521 c 128,-1,5
 110 556 110 556 186 562 c 1,6,-1
 186 680 l 1,7,-1
 246 680 l 1,8,-1
 246 562 l 1,9,10
 322 556 322 556 349 521 c 128,-1,11
 376 486 376 486 376 430 c 0,12,13
 376 389 376 389 366 363 c 128,-1,14
 356 337 356 337 338 337 c 0,15,16
 328 337 328 337 320 342 c 1,17,18
 322 350 322 350 323 359 c 128,-1,19
 324 368 324 368 324 376 c 0,20,21
 324 406 324 406 316 425.5 c 128,-1,22
 308 445 308 445 285 455 c 128,-1,23
 262 465 262 465 216 465 c 0,24,25
 171 465 171 465 147.5 455 c 128,-1,26
 124 445 124 445 116 425.5 c 128,-1,27
 108 406 108 406 108 376 c 0,28,29
 108 368 108 368 109 359 c 128,-1,30
 110 350 110 350 112 342 c 1,31,32
 104 337 104 337 94 337 c 0,0,1
EndSplineSet
EndChar

StartChar: u1E13B
Encoding: 60 123195 60
Width: 447
Flags: W
LayerCount: 2
Fore
SplineSet
227 337 m 0,0,1
 142 337 142 337 105 366 c 128,-1,2
 68 395 68 395 68 450 c 0,3,4
 68 481 68 481 81 506 c 128,-1,5
 94 531 94 531 127 553 c 128,-1,6
 160 575 160 575 219 596 c 1,7,-1
 219 601 l 1,8,9
 190 600 190 600 168.5 599.5 c 128,-1,10
 147 599 147 599 133 599 c 2,11,-1
 72 599 l 1,12,-1
 72 631 l 1,13,-1
 89 680 l 1,14,-1
 371 680 l 1,15,-1
 371 597 l 1,16,17
 283 572 283 572 236 555 c 128,-1,18
 189 538 189 538 162 518 c 0,19,20
 128 493 128 493 128 469 c 0,21,22
 128 452 128 452 150 442 c 128,-1,23
 172 432 172 432 228 432 c 0,24,25
 285 432 285 432 307.5 444.5 c 128,-1,26
 330 457 330 457 330 488 c 0,27,28
 330 502 330 502 326 517 c 1,29,30
 333 522 333 522 341 522 c 0,31,32
 361 522 361 522 370 500 c 128,-1,33
 379 478 379 478 379 449 c 0,34,35
 379 391 379 391 340.5 364 c 128,-1,36
 302 337 302 337 227 337 c 0,0,1
EndSplineSet
EndChar

StartChar: u1E13C
Encoding: 61 123196 61
Width: 627
Flags: W
LayerCount: 2
Fore
SplineSet
485 -226 m 1,0,-1
 485 500 l 2,1,2
 485 553 485 553 467.5 571 c 128,-1,3
 450 589 450 589 403 589 c 0,4,5
 360 589 360 589 343 570.5 c 128,-1,6
 326 552 326 552 326 504 c 2,7,-1
 326 448 l 1,8,-1
 266 448 l 1,9,-1
 266 504 l 2,10,11
 266 553 266 553 247 571 c 128,-1,12
 228 589 228 589 179 589 c 0,13,14
 135 589 135 589 115.5 577 c 128,-1,15
 96 565 96 565 96 537 c 0,16,17
 96 510 96 510 114 499 c 128,-1,18
 132 488 132 488 175 488 c 1,19,20
 175 405 175 405 120 405 c 0,21,22
 85 405 85 405 63 440.5 c 128,-1,23
 41 476 41 476 41 536 c 0,24,25
 41 611 41 611 74.5 650.5 c 128,-1,26
 108 690 108 690 177 690 c 0,27,28
 228 690 228 690 255.5 669.5 c 128,-1,29
 283 649 283 649 294 603 c 1,30,-1
 298 603 l 1,31,32
 308 649 308 649 336 669.5 c 128,-1,33
 364 690 364 690 409 690 c 0,34,35
 452 690 452 690 482 674 c 128,-1,36
 512 658 512 658 528.5 618 c 128,-1,37
 545 578 545 578 545 506 c 2,38,-1
 545 -226 l 1,39,-1
 485 -226 l 1,0,-1
EndSplineSet
EndChar

StartChar: u1E13D
Encoding: 62 123197 62
Width: 685
Flags: W
LayerCount: 2
Fore
SplineSet
84 0 m 1,0,-1
 84 680 l 1,1,-1
 144 680 l 1,2,-1
 144 98 l 1,3,-1
 295 98 l 1,4,-1
 295 235 l 2,5,6
 295 332 295 332 329 375 c 128,-1,7
 363 418 363 418 439 418 c 256,8,9
 515 418 515 418 549 375 c 128,-1,10
 583 332 583 332 583 235 c 2,11,-1
 583 98 l 1,12,-1
 654 98 l 1,13,-1
 654 60 l 1,14,-1
 632 0 l 1,15,-1
 523 0 l 1,16,-1
 523 221 l 2,17,18
 523 276 523 276 506 296.5 c 128,-1,19
 489 317 489 317 439 317 c 0,20,21
 390 317 390 317 372.5 296.5 c 128,-1,22
 355 276 355 276 355 221 c 2,23,-1
 355 0 l 1,24,-1
 84 0 l 1,0,-1
EndSplineSet
EndChar

StartChar: u1E140
Encoding: 63 123200 63
Width: 598
Flags: W
LayerCount: 2
Fore
SplineSet
299 -10 m 0,0,1
 218 -10 218 -10 169.5 10.5 c 128,-1,2
 121 31 121 31 99 77.5 c 128,-1,3
 77 124 77 124 77 203 c 2,4,-1
 77 477 l 2,5,6
 77 556 77 556 99 602.5 c 128,-1,7
 121 649 121 649 169.5 669.5 c 128,-1,8
 218 690 218 690 299 690 c 0,9,10
 382 690 382 690 430.5 669.5 c 128,-1,11
 479 649 479 649 500 602.5 c 128,-1,12
 521 556 521 556 521 477 c 2,13,-1
 521 203 l 2,14,15
 521 124 521 124 500 77.5 c 128,-1,16
 479 31 479 31 430.5 10.5 c 128,-1,17
 382 -10 382 -10 299 -10 c 0,0,1
299 91 m 0,18,19
 363 91 363 91 398 101.5 c 128,-1,20
 433 112 433 112 447 139 c 128,-1,21
 461 166 461 166 461 213 c 2,22,-1
 461 467 l 2,23,24
 461 515 461 515 447 541.5 c 128,-1,25
 433 568 433 568 398 578.5 c 128,-1,26
 363 589 363 589 299 589 c 0,27,28
 237 589 237 589 201.5 578.5 c 128,-1,29
 166 568 166 568 151.5 541.5 c 128,-1,30
 137 515 137 515 137 467 c 2,31,-1
 137 213 l 2,32,33
 137 166 137 166 151.5 139 c 128,-1,34
 166 112 166 112 201.5 101.5 c 128,-1,35
 237 91 237 91 299 91 c 0,18,19
EndSplineSet
EndChar

StartChar: u1E141
Encoding: 64 123201 64
Width: 228
Flags: W
LayerCount: 2
Fore
SplineSet
84 0 m 1,0,-1
 84 680 l 1,1,-1
 144 680 l 1,2,-1
 144 0 l 1,3,-1
 84 0 l 1,0,-1
EndSplineSet
EndChar

StartChar: u1E142
Encoding: 65 123202 65
Width: 467
Flags: W
LayerCount: 2
Fore
SplineSet
333 0 m 1,0,-1
 333 301 l 1,1,-1
 74 301 l 1,2,-1
 74 680 l 1,3,-1
 134 680 l 1,4,-1
 134 402 l 1,5,-1
 393 402 l 1,6,-1
 393 0 l 1,7,-1
 333 0 l 1,0,-1
EndSplineSet
EndChar

StartChar: u1E143
Encoding: 66 123203 66
Width: 616
Flags: W
LayerCount: 2
Fore
SplineSet
132 220 m 1,0,-1
 132 258 l 1,1,-1
 154 314 l 1,2,-1
 278 314 l 1,3,-1
 278 506 l 2,4,5
 278 553 278 553 259 571 c 128,-1,6
 240 589 240 589 187 589 c 0,7,8
 142 589 142 589 123.5 577.5 c 128,-1,9
 105 566 105 566 105 538 c 0,10,11
 105 513 105 513 123.5 502 c 128,-1,12
 142 491 142 491 191 491 c 1,13,14
 191 451 191 451 175.5 429.5 c 128,-1,15
 160 408 160 408 131 408 c 0,16,17
 95 408 95 408 72.5 443.5 c 128,-1,18
 50 479 50 479 50 537 c 0,19,20
 50 611 50 611 84.5 650.5 c 128,-1,21
 119 690 119 690 183 690 c 0,22,23
 276 690 276 690 306 602 c 1,24,-1
 310 602 l 1,25,26
 340 690 340 690 434 690 c 0,27,28
 499 690 499 690 532.5 650.5 c 128,-1,29
 566 611 566 611 566 537 c 0,30,31
 566 479 566 479 544.5 443.5 c 128,-1,32
 523 408 523 408 487 408 c 0,33,34
 458 408 458 408 441.5 429.5 c 128,-1,35
 425 451 425 451 425 491 c 1,36,37
 474 491 474 491 492.5 502 c 128,-1,38
 511 513 511 513 511 538 c 0,39,40
 511 566 511 566 492.5 577.5 c 128,-1,41
 474 589 474 589 429 589 c 0,42,43
 376 589 376 589 357 571 c 128,-1,44
 338 553 338 553 338 506 c 2,45,-1
 338 314 l 1,46,-1
 484 314 l 1,47,-1
 484 276 l 1,48,-1
 462 220 l 1,49,-1
 338 220 l 1,50,-1
 338 0 l 1,51,-1
 278 0 l 1,52,-1
 278 220 l 1,53,-1
 132 220 l 1,0,-1
EndSplineSet
EndChar

StartChar: u1E144
Encoding: 67 123204 67
Width: 586
Flags: W
LayerCount: 2
Fore
SplineSet
299 -10 m 0,0,1
 172 -10 172 -10 118.5 32.5 c 128,-1,2
 65 75 65 75 65 172 c 0,3,4
 65 248 65 248 99.5 290.5 c 128,-1,5
 134 333 134 333 191 333 c 0,6,7
 265 333 265 333 265 250 c 1,8,9
 190 250 190 250 155 232.5 c 128,-1,10
 120 215 120 215 120 172 c 0,11,12
 120 128 120 128 162 109.5 c 128,-1,13
 204 91 204 91 298 91 c 0,14,15
 355 91 355 91 386.5 101.5 c 128,-1,16
 418 112 418 112 431 139 c 128,-1,17
 444 166 444 166 444 214 c 2,18,-1
 444 582 l 1,19,-1
 178 582 l 2,20,21
 156 582 156 582 148 574.5 c 128,-1,22
 140 567 140 567 137 542 c 2,23,-1
 129 478 l 1,24,-1
 84 478 l 1,25,-1
 84 680 l 1,26,-1
 504 680 l 1,27,-1
 504 200 l 2,28,29
 504 85 504 85 457.5 37.5 c 128,-1,30
 411 -10 411 -10 299 -10 c 0,0,1
EndSplineSet
EndChar

StartChar: u1E145
Encoding: 68 123205 68
Width: 628
Flags: W
LayerCount: 2
Fore
SplineSet
282 0 m 1,0,-1
 133 571 l 1,1,-1
 30 571 l 1,2,-1
 30 611 l 1,3,-1
 49 680 l 1,4,-1
 170 680 l 1,5,-1
 312 120 l 1,6,-1
 317 120 l 1,7,-1
 460 680 l 1,8,-1
 579 680 l 1,9,-1
 598 611 l 1,10,-1
 598 571 l 1,11,-1
 495 571 l 1,12,-1
 345 0 l 1,13,-1
 282 0 l 1,0,-1
EndSplineSet
EndChar

StartChar: u1E146
Encoding: 69 123206 69
Width: 544
Flags: W
LayerCount: 2
Fore
SplineSet
402 0 m 1,0,-1
 402 17 l 2,1,2
 402 79 402 79 371 116.5 c 128,-1,3
 340 154 340 154 269.5 170.5 c 128,-1,4
 199 187 199 187 82 187 c 2,5,-1
 56 187 l 1,6,7
 56 244 56 244 78 266 c 128,-1,8
 100 288 100 288 158 288 c 0,9,10
 219 288 219 288 269.5 269.5 c 128,-1,11
 320 251 320 251 354.5 220 c 128,-1,12
 389 189 389 189 400 151 c 1,13,-1
 405 151 l 1,14,15
 404 167 404 167 403 178 c 128,-1,16
 402 189 402 189 402 209 c 128,-1,17
 402 229 402 229 402 272 c 2,18,-1
 402 483 l 2,19,20
 402 526 402 526 390.5 549 c 128,-1,21
 379 572 379 572 347.5 580.5 c 128,-1,22
 316 589 316 589 256 589 c 0,23,24
 179 589 179 589 145 576.5 c 128,-1,25
 111 564 111 564 111 534 c 0,26,27
 111 509 111 509 132 498.5 c 128,-1,28
 153 488 153 488 205 488 c 1,29,30
 205 405 205 405 146 405 c 0,31,32
 105 405 105 405 80.5 439.5 c 128,-1,33
 56 474 56 474 56 531 c 0,34,35
 56 614 56 614 105 652 c 128,-1,36
 154 690 154 690 257 690 c 0,37,38
 367 690 367 690 414.5 644 c 128,-1,39
 462 598 462 598 462 491 c 2,40,-1
 462 0 l 1,41,-1
 402 0 l 1,0,-1
EndSplineSet
EndChar

StartChar: u1E147
Encoding: 70 123207 70
Width: 601
Flags: W
LayerCount: 2
Fore
SplineSet
317 -10 m 0,0,1
 229 -10 229 -10 177.5 11 c 128,-1,2
 126 32 126 32 104 79 c 128,-1,3
 82 126 82 126 82 202 c 2,4,-1
 82 680 l 1,5,-1
 142 680 l 1,6,-1
 142 209 l 2,7,8
 142 164 142 164 157.5 138 c 128,-1,9
 173 112 173 112 211 101.5 c 128,-1,10
 249 91 249 91 315 91 c 0,11,12
 410 91 410 91 447.5 112 c 128,-1,13
 485 133 485 133 485 185 c 0,14,15
 485 238 485 238 445 263 c 128,-1,16
 405 288 405 288 304 299 c 1,17,-1
 304 403 l 1,18,19
 386 420 386 420 423.5 447 c 128,-1,20
 461 474 461 474 461 516 c 0,21,22
 461 557 461 557 424.5 574 c 128,-1,23
 388 591 388 591 296 591 c 1,24,25
 296 690 296 690 387 690 c 0,26,27
 450 690 450 690 485.5 647.5 c 128,-1,28
 521 605 521 605 521 531 c 0,29,30
 521 471 521 471 496 434 c 128,-1,31
 471 397 471 397 419 378 c 1,32,-1
 419 372 l 1,33,34
 486 353 486 353 515 308.5 c 128,-1,35
 544 264 544 264 544 187 c 0,36,37
 544 83 544 83 490 36.5 c 128,-1,38
 436 -10 436 -10 317 -10 c 0,0,1
EndSplineSet
EndChar

StartChar: u1E148
Encoding: 71 123208 71
Width: 576
Flags: W
LayerCount: 2
Fore
SplineSet
317 -10 m 0,0,1
 211 -10 211 -10 166 29.5 c 128,-1,2
 121 69 121 69 121 151 c 0,3,4
 121 270 121 270 219 327 c 1,5,-1
 219 331 l 1,6,7
 129 345 129 345 92 387.5 c 128,-1,8
 55 430 55 430 55 509 c 0,9,10
 55 607 55 607 110.5 648.5 c 128,-1,11
 166 690 166 690 296 690 c 0,12,13
 416 690 416 690 472 656.5 c 128,-1,14
 528 623 528 623 528 551 c 0,15,16
 528 514 528 514 515.5 490 c 128,-1,17
 503 466 503 466 483 466 c 0,18,19
 475 466 475 466 467 470 c 1,20,21
 473 491 473 491 473 512 c 0,22,23
 473 542 473 542 458 558.5 c 128,-1,24
 443 575 443 575 405 582 c 128,-1,25
 367 589 367 589 298 589 c 0,26,27
 227 589 227 589 187 581 c 128,-1,28
 147 573 147 573 131 554 c 128,-1,29
 115 535 115 535 115 501 c 256,30,31
 115 467 115 467 132 448 c 128,-1,32
 149 429 149 429 192.5 421.5 c 128,-1,33
 236 414 236 414 315 414 c 2,34,-1
 398 414 l 1,35,-1
 398 332 l 1,36,37
 285 311 285 311 234 272 c 128,-1,38
 183 233 183 233 183 170 c 0,39,40
 183 125 183 125 211 108 c 128,-1,41
 239 91 239 91 315 91 c 0,42,43
 386 91 386 91 411.5 101.5 c 128,-1,44
 437 112 437 112 437 135 c 0,45,46
 437 155 437 155 419.5 162 c 128,-1,47
 402 169 402 169 357 169 c 1,48,49
 357 209 357 209 372.5 230.5 c 128,-1,50
 388 252 388 252 418 252 c 0,51,52
 453 252 453 252 472.5 220.5 c 128,-1,53
 492 189 492 189 492 133 c 0,54,55
 492 57 492 57 450.5 23.5 c 128,-1,56
 409 -10 409 -10 317 -10 c 0,0,1
EndSplineSet
EndChar

StartChar: u1E149
Encoding: 72 123209 72
Width: 635
Flags: W
LayerCount: 2
Fore
SplineSet
403 0 m 1,0,1
 318 70 318 70 240.5 114.5 c 128,-1,2
 163 159 163 159 79 190 c 1,3,-1
 79 282 l 1,4,5
 161 306 161 306 210 334.5 c 128,-1,6
 259 363 259 363 280.5 403 c 128,-1,7
 302 443 302 443 302 499 c 0,8,9
 302 551 302 551 282 570 c 128,-1,10
 262 589 262 589 204 589 c 0,11,12
 153 589 153 589 133 577 c 128,-1,13
 113 565 113 565 113 539 c 0,14,15
 113 514 113 514 133.5 504.5 c 128,-1,16
 154 495 154 495 203 495 c 1,17,18
 203 455 203 455 188 433.5 c 128,-1,19
 173 412 173 412 144 412 c 0,20,21
 105 412 105 412 81.5 446.5 c 128,-1,22
 58 481 58 481 58 540 c 0,23,24
 58 614 58 614 96.5 652 c 128,-1,25
 135 690 135 690 207 690 c 0,26,27
 362 690 362 690 362 505 c 0,28,29
 362 407 362 407 319.5 349 c 128,-1,30
 277 291 277 291 182 257 c 1,31,-1
 182 252 l 1,32,33
 239 228 239 228 296.5 196 c 128,-1,34
 354 164 354 164 427 110 c 1,35,-1
 431 112 l 1,36,-1
 541 680 l 1,37,-1
 602 680 l 1,38,-1
 470 0 l 1,39,-1
 403 0 l 1,0,1
EndSplineSet
EndChar

StartChar: u1E14E
Encoding: 73 123214 73
Width: 688
Flags: W
LayerCount: 2
Fore
SplineSet
219 -10 m 0,0,1
 81 -10 81 -10 81 159 c 2,2,-1
 81 505 l 2,3,4
 81 608 81 608 114 649 c 128,-1,5
 147 690 147 690 217 690 c 0,6,7
 252 690 252 690 278.5 679 c 128,-1,8
 305 668 305 668 327 638.5 c 128,-1,9
 349 609 349 609 370 553 c 2,10,-1
 544 96 l 1,11,-1
 544 824 l 1,12,-1
 604 824 l 1,13,-1
 604 0 l 1,14,-1
 515 0 l 1,15,-1
 317 516 l 2,16,17
 299 563 299 563 277 576 c 128,-1,18
 255 589 255 589 221 589 c 0,19,20
 174 589 174 589 157.5 571.5 c 128,-1,21
 141 554 141 554 141 508 c 2,22,-1
 141 162 l 2,23,24
 141 122 141 122 158.5 106.5 c 128,-1,25
 176 91 176 91 221 91 c 0,26,27
 302 91 302 91 302 143 c 0,28,29
 302 169 302 169 282.5 180.5 c 128,-1,30
 263 192 263 192 217 192 c 1,31,32
 217 275 217 275 273 275 c 0,33,34
 311 275 311 275 334 237.5 c 128,-1,35
 357 200 357 200 357 141 c 0,36,37
 357 70 357 70 323 30 c 128,-1,38
 289 -10 289 -10 219 -10 c 0,0,1
EndSplineSet
EndChar

StartChar: u1E14F
Encoding: 74 123215 74
Width: 810
Flags: W
LayerCount: 2
Fore
SplineSet
405 -10 m 256,0,1
 301 -10 301 -10 223.5 34 c 128,-1,2
 146 78 146 78 103 158 c 128,-1,3
 60 238 60 238 60 345 c 256,4,5
 60 452 60 452 103 532 c 128,-1,6
 146 612 146 612 223.5 656 c 128,-1,7
 301 700 301 700 405 700 c 256,8,9
 509 700 509 700 586.5 656 c 128,-1,10
 664 612 664 612 707 532 c 128,-1,11
 750 452 750 452 750 345 c 256,12,13
 750 238 750 238 707 158 c 128,-1,14
 664 78 664 78 586.5 34 c 128,-1,15
 509 -10 509 -10 405 -10 c 256,0,1
405 50 m 256,16,17
 492 50 492 50 556 86.5 c 128,-1,18
 620 123 620 123 655.5 189 c 128,-1,19
 691 255 691 255 691 345 c 256,20,21
 691 435 691 435 655.5 501 c 128,-1,22
 620 567 620 567 556 603.5 c 128,-1,23
 492 640 492 640 405 640 c 256,24,25
 318 640 318 640 254 603.5 c 128,-1,26
 190 567 190 567 154.5 501 c 128,-1,27
 119 435 119 435 119 345 c 256,28,29
 119 255 119 255 154.5 189 c 128,-1,30
 190 123 190 123 254 86.5 c 128,-1,31
 318 50 318 50 405 50 c 256,16,17
345 138 m 0,32,33
 292 138 292 138 267.5 162.5 c 128,-1,34
 243 187 243 187 243 239 c 0,35,36
 243 321 243 321 297 321 c 0,37,38
 334 321 334 321 334 266 c 1,39,40
 302 266 302 266 290.5 261 c 128,-1,41
 279 256 279 256 279 242 c 0,42,43
 279 227 279 227 292.5 221.5 c 128,-1,44
 306 216 306 216 346 216 c 0,45,46
 384 216 384 216 395 228.5 c 128,-1,47
 406 241 406 241 406 283 c 0,48,49
 406 328 406 328 394 342.5 c 128,-1,50
 382 357 382 357 347 357 c 2,51,-1
 253 357 l 1,52,-1
 253 542 l 1,53,-1
 293 542 l 1,54,-1
 293 435 l 1,55,-1
 346 435 l 2,56,57
 359 435 359 435 370 433 c 1,58,-1
 370 439 l 2,59,60
 370 503 370 503 391.5 529.5 c 128,-1,61
 413 556 413 556 463 556 c 0,62,63
 514 556 514 556 536.5 528.5 c 128,-1,64
 559 501 559 501 559 439 c 2,65,-1
 559 143 l 1,66,-1
 519 143 l 1,67,-1
 519 426 l 2,68,69
 519 455 519 455 506.5 466.5 c 128,-1,70
 494 478 494 478 462 478 c 0,71,72
 433 478 433 478 420 468 c 128,-1,73
 407 458 407 458 407 434 c 2,74,-1
 407 419 l 1,75,76
 446 390 446 390 446 286 c 0,77,78
 446 203 446 203 423.5 170.5 c 128,-1,79
 401 138 401 138 345 138 c 0,32,33
EndSplineSet
EndChar

StartChar: DottedCircle
Encoding: 76 9676 76
Width: 712
Flags: WO
AnchorPoint: "+BBEENQQ3BEsEPARPBD0EPQQ+BDUA--0" 366 680 basechar 0
LayerCount: 2
Fore
SplineSet
335.200195312 608 m 0,0,1
 335.200195312 620.599609375 335.200195312 620.599609375 344.799804688 630.200195312 c 128,-1,2
 354.400390625 639.802734375 354.400390625 639.802734375 367 639.799804688 c 0,3,4
 380.200195312 639.799804688 380.200195312 639.799804688 389.799804688 630.200195312 c 128,-1,5
 399.400390625 620.599609375 399.400390625 620.599609375 399.400390625 608 c 0,6,7
 399.400390625 594.799804688 399.400390625 594.799804688 389.799804688 585.200195312 c 128,-1,8
 380.19921875 575.596679688 380.19921875 575.596679688 367 575.599609375 c 0,9,10
 354.400390625 575.599609375 354.400390625 575.599609375 344.799804688 585.200195312 c 128,-1,11
 335.200195312 594.799804688 335.200195312 594.799804688 335.200195312 608 c 0,0,1
232 585.799804688 m 0,12,13
 232 598.399414062 232 598.399414062 241.599609375 608 c 128,-1,14
 251.200195312 617.602539062 251.200195312 617.602539062 263.799804688 617.599609375 c 0,15,16
 277 617.599609375 277 617.599609375 286.299804688 608 c 128,-1,17
 295.599609375 598.396484375 295.599609375 598.396484375 295.599609375 585.799804688 c 0,18,19
 295.599609375 572.599609375 295.599609375 572.599609375 286.299804688 563.299804688 c 128,-1,20
 277 554 277 554 263.799804688 554 c 0,21,22
 251.200195312 554 251.200195312 554 241.599609375 563.299804688 c 128,-1,23
 232 572.599609375 232 572.599609375 232 585.799804688 c 0,12,13
438.400390625 585.799804688 m 0,24,25
 438.400390625 598.399414062 438.400390625 598.399414062 448 608 c 128,-1,26
 457.600585938 617.602539062 457.600585938 617.602539062 470.200195312 617.599609375 c 0,27,28
 483.400390625 617.599609375 483.400390625 617.599609375 493 608 c 128,-1,29
 502.599609375 598.399414062 502.599609375 598.399414062 502.599609375 585.799804688 c 0,30,31
 502.599609375 572.599609375 502.599609375 572.599609375 493 563.299804688 c 128,-1,32
 483.399414062 554 483.399414062 554 470.200195312 554 c 0,33,34
 457.599609375 554 457.599609375 554 448 563.299804688 c 128,-1,35
 438.400390625 572.599609375 438.400390625 572.599609375 438.400390625 585.799804688 c 0,24,25
140.799804688 528.200195312 m 0,36,37
 140.799804688 540.799804688 140.799804688 540.799804688 150.400390625 550.399414062 c 128,-1,38
 160 560 160 560 173.200195312 560 c 0,39,40
 185.799804688 560 185.799804688 560 195.400390625 550.399414062 c 128,-1,41
 205 540.799804688 205 540.799804688 205 528.200195312 c 0,42,43
 205 514.999023438 205 514.999023438 195.400390625 505.399414062 c 128,-1,44
 185.799804688 495.799804688 185.799804688 495.799804688 173.200195312 495.799804688 c 0,45,46
 160 495.799804688 160 495.799804688 150.400390625 505.399414062 c 128,-1,47
 140.799804688 515 140.799804688 515 140.799804688 528.200195312 c 0,36,37
529.599609375 528.200195312 m 0,48,49
 529.599609375 540.799804688 529.599609375 540.799804688 538.900390625 550.399414062 c 128,-1,50
 548.19921875 560 548.19921875 560 561.400390625 560 c 128,-1,51
 574.600585938 560 574.600585938 560 583.900390625 550.399414062 c 128,-1,52
 593.19921875 540.799804688 593.19921875 540.799804688 593.200195312 528.200195312 c 0,53,54
 593.200195312 514.999023438 593.200195312 514.999023438 583.900390625 505.399414062 c 128,-1,55
 574.600585938 495.799804688 574.600585938 495.799804688 561.400390625 495.799804688 c 128,-1,56
 548.19921875 495.799804688 548.19921875 495.799804688 538.900390625 505.399414062 c 128,-1,57
 529.600585938 515 529.600585938 515 529.599609375 528.200195312 c 0,48,49
83.2001953125 437 m 128,-1,59
 83.2001953125 450.200195312 83.2001953125 450.200195312 92.7998046875 459.5 c 128,-1,60
 102.400390625 468.799804688 102.400390625 468.799804688 115 468.799804688 c 0,61,62
 128.200195312 468.799804688 128.200195312 468.799804688 137.799804688 459.5 c 128,-1,63
 147.400390625 450.200195312 147.400390625 450.200195312 147.400390625 437 c 128,-1,64
 147.400390625 423.799804688 147.400390625 423.799804688 137.799804688 414.5 c 128,-1,65
 128.19921875 405.200195312 128.19921875 405.200195312 115 405.200195312 c 0,66,67
 102.400390625 405.200195312 102.400390625 405.200195312 92.7998046875 414.5 c 128,-1,58
 83.19921875 423.799804688 83.19921875 423.799804688 83.2001953125 437 c 128,-1,59
587.200195312 437 m 128,-1,69
 587.200195312 450.200195312 587.200195312 450.200195312 596.5 459.5 c 128,-1,70
 605.796875 468.799804688 605.796875 468.799804688 619 468.799804688 c 128,-1,71
 632.203125 468.799804688 632.203125 468.799804688 641.5 459.5 c 128,-1,72
 650.796875 450.200195312 650.796875 450.200195312 650.799804688 437 c 128,-1,73
 650.799804688 423.799804688 650.799804688 423.799804688 641.5 414.5 c 128,-1,74
 632.203125 405.200195312 632.203125 405.200195312 619 405.200195312 c 128,-1,75
 605.796875 405.200195312 605.796875 405.200195312 596.5 414.5 c 128,-1,68
 587.200195312 423.799804688 587.200195312 423.799804688 587.200195312 437 c 128,-1,69
61 333.799804688 m 128,-1,77
 61 347 61 347 70.599609375 356.299804688 c 128,-1,78
 80.2001953125 365.599609375 80.2001953125 365.599609375 93.400390625 365.599609375 c 0,79,80
 106 365.599609375 106 365.599609375 115.599609375 356.299804688 c 128,-1,81
 125.200195312 347 125.200195312 347 125.200195312 333.799804688 c 128,-1,82
 125.200195312 320.599609375 125.200195312 320.599609375 115.599609375 311.299804688 c 128,-1,83
 106 302 106 302 93.400390625 302 c 0,84,85
 80.19921875 302 80.19921875 302 70.599609375 311.299804688 c 128,-1,76
 61 320.599609375 61 320.599609375 61 333.799804688 c 128,-1,77
609.400390625 333.799804688 m 128,-1,87
 609.400390625 347 609.400390625 347 618.700195312 356.299804688 c 128,-1,88
 627.997070312 365.599609375 627.997070312 365.599609375 641.200195312 365.599609375 c 128,-1,89
 654.403320312 365.599609375 654.403320312 365.599609375 663.700195312 356.299804688 c 128,-1,90
 672.997070312 347 672.997070312 347 673 333.799804688 c 128,-1,91
 673 320.599609375 673 320.599609375 663.700195312 311.299804688 c 128,-1,92
 654.403320312 302 654.403320312 302 641.200195312 302 c 128,-1,93
 627.997070312 302 627.997070312 302 618.700195312 311.299804688 c 128,-1,86
 609.403320312 320.599609375 609.403320312 320.599609375 609.400390625 333.799804688 c 128,-1,87
83.2001953125 230.599609375 m 128,-1,95
 83.2001953125 243.799804688 83.2001953125 243.799804688 92.7998046875 253.099609375 c 128,-1,96
 102.400390625 262.399414062 102.400390625 262.399414062 115 262.399414062 c 0,97,98
 128.200195312 262.399414062 128.200195312 262.399414062 137.799804688 253.099609375 c 128,-1,99
 147.400390625 243.799804688 147.400390625 243.799804688 147.400390625 230.599609375 c 128,-1,100
 147.400390625 217.399414062 147.400390625 217.399414062 137.799804688 208.099609375 c 128,-1,101
 128.19921875 198.799804688 128.19921875 198.799804688 115 198.799804688 c 0,102,103
 102.400390625 198.799804688 102.400390625 198.799804688 92.7998046875 208.099609375 c 128,-1,94
 83.19921875 217.399414062 83.19921875 217.399414062 83.2001953125 230.599609375 c 128,-1,95
587.200195312 230.599609375 m 128,-1,105
 587.200195312 243.799804688 587.200195312 243.799804688 596.5 253.099609375 c 128,-1,106
 605.796875 262.399414062 605.796875 262.399414062 619 262.399414062 c 128,-1,107
 632.203125 262.399414062 632.203125 262.399414062 641.5 253.099609375 c 128,-1,108
 650.796875 243.799804688 650.796875 243.799804688 650.799804688 230.599609375 c 128,-1,109
 650.799804688 217.399414062 650.799804688 217.399414062 641.5 208.099609375 c 128,-1,110
 632.203125 198.799804688 632.203125 198.799804688 619 198.799804688 c 128,-1,111
 605.796875 198.799804688 605.796875 198.799804688 596.5 208.099609375 c 128,-1,104
 587.200195312 217.399414062 587.200195312 217.399414062 587.200195312 230.599609375 c 128,-1,105
140.799804688 139.399414062 m 0,112,113
 140.799804688 152.600585938 140.799804688 152.600585938 150.400390625 162.200195312 c 128,-1,114
 160 171.799804688 160 171.799804688 173.200195312 171.799804688 c 0,115,116
 185.799804688 171.799804688 185.799804688 171.799804688 195.400390625 162.200195312 c 128,-1,117
 205 152.599609375 205 152.599609375 205 139.399414062 c 0,118,119
 205 126.799804688 205 126.799804688 195.400390625 117.200195312 c 128,-1,120
 185.799804688 107.599609375 185.799804688 107.599609375 173.200195312 107.599609375 c 0,121,122
 160 107.599609375 160 107.599609375 150.400390625 117.200195312 c 128,-1,123
 140.799804688 126.799804688 140.799804688 126.799804688 140.799804688 139.399414062 c 0,112,113
529.599609375 139.399414062 m 0,124,125
 529.599609375 152.600585938 529.599609375 152.600585938 538.900390625 162.200195312 c 128,-1,126
 548.19921875 171.799804688 548.19921875 171.799804688 561.400390625 171.799804688 c 128,-1,127
 574.600585938 171.799804688 574.600585938 171.799804688 583.900390625 162.200195312 c 128,-1,128
 593.19921875 152.599609375 593.19921875 152.599609375 593.200195312 139.399414062 c 0,129,130
 593.200195312 126.799804688 593.200195312 126.799804688 583.900390625 117.200195312 c 128,-1,131
 574.600585938 107.599609375 574.600585938 107.599609375 561.400390625 107.599609375 c 128,-1,132
 548.19921875 107.599609375 548.19921875 107.599609375 538.900390625 117.200195312 c 128,-1,133
 529.600585938 126.799804688 529.600585938 126.799804688 529.599609375 139.399414062 c 0,124,125
232 81.7998046875 m 128,-1,135
 232 95 232 95 241.599609375 104.299804688 c 128,-1,136
 251.200195312 113.599609375 251.200195312 113.599609375 263.799804688 113.599609375 c 0,137,138
 277 113.599609375 277 113.599609375 286.299804688 104.299804688 c 128,-1,139
 295.599609375 95 295.599609375 95 295.599609375 81.7998046875 c 128,-1,140
 295.599609375 68.599609375 295.599609375 68.599609375 286.299804688 59.2998046875 c 128,-1,141
 277 50 277 50 263.799804688 50 c 0,142,143
 251.200195312 50 251.200195312 50 241.599609375 59.2998046875 c 128,-1,134
 232 68.599609375 232 68.599609375 232 81.7998046875 c 128,-1,135
438.400390625 81.7998046875 m 128,-1,145
 438.400390625 95 438.400390625 95 448 104.299804688 c 128,-1,146
 457.600585938 113.599609375 457.600585938 113.599609375 470.200195312 113.599609375 c 0,147,148
 483.400390625 113.599609375 483.400390625 113.599609375 493 104.299804688 c 128,-1,149
 502.600585938 95 502.600585938 95 502.599609375 81.7998046875 c 128,-1,150
 502.599609375 68.599609375 502.599609375 68.599609375 493 59.2998046875 c 128,-1,151
 483.399414062 50 483.399414062 50 470.200195312 50 c 0,152,153
 457.599609375 50 457.599609375 50 448 59.2998046875 c 128,-1,144
 438.399414062 68.599609375 438.399414062 68.599609375 438.400390625 81.7998046875 c 128,-1,145
335.200195312 59.599609375 m 0,154,155
 335.200195312 72.7998046875 335.200195312 72.7998046875 344.799804688 82.3994140625 c 128,-1,156
 354.400390625 92 354.400390625 92 367 92 c 0,157,158
 380.200195312 92 380.200195312 92 389.799804688 82.3994140625 c 128,-1,159
 399.400390625 72.7998046875 399.400390625 72.7998046875 399.400390625 59.599609375 c 0,160,161
 399.400390625 47 399.400390625 47 389.799804688 37.3994140625 c 128,-1,162
 380.19921875 27.7998046875 380.19921875 27.7998046875 367 27.7998046875 c 0,163,164
 354.400390625 27.7998046875 354.400390625 27.7998046875 344.799804688 37.3994140625 c 128,-1,165
 335.19921875 47 335.19921875 47 335.200195312 59.599609375 c 0,154,155
EndSplineSet
EndChar
